<svg xmlns="http://www.w3.org/2000/svg" viewBox="0 0 347.23 545.1"><defs><style>.cls-1,.cls-276,.cls-325{font-size:287.28px;font-family:GlacialIndifference-Bold, Glacial Indifference;font-weight:700;}.cls-1{fill:#333646;}.cls-2{fill:#343747;}.cls-3{fill:#353848;}.cls-4{fill:#363949;}.cls-5{fill:#373a49;}.cls-6{fill:#373a4a;}.cls-7{fill:#383b4b;}.cls-8{fill:#393c4c;}.cls-9{fill:#3a3d4c;}.cls-10{fill:#3a3d4d;}.cls-11{fill:#3b3e4e;}.cls-12{fill:#3b3f4e;}.cls-13{fill:#3c3f4f;}.cls-14{fill:#3d404f;}.cls-15{fill:#3d4050;}.cls-16{fill:#3e4150;}.cls-17{fill:#3e4251;}.cls-18{fill:#3f4252;}.cls-19{fill:#404352;}.cls-20{fill:#404353;}.cls-21{fill:#414453;}.cls-22{fill:#424554;}.cls-23{fill:#434655;}.cls-24{fill:#434656;}.cls-25{fill:#444756;}.cls-26{fill:#454857;}.cls-27{fill:#464958;}.cls-28{fill:#474a59;}.cls-29{fill:#484b5a;}.cls-30{fill:#494c5b;}.cls-31{fill:#4a4d5c;}.cls-32{fill:#4b4e5d;}.cls-33{fill:#4c4f5e;}.cls-34{fill:#4c505e;}.cls-35{fill:#4d505f;}.cls-36{fill:#4e515f;}.cls-37{fill:#4e5160;}.cls-38{fill:#4f5261;}.cls-39{fill:#4f5361;}.cls-40{fill:#505362;}.cls-41{fill:#515462;}.cls-42{fill:#515463;}.cls-43{fill:#525563;}.cls-44{fill:#525664;}.cls-45{fill:#535665;}.cls-46{fill:#545765;}.cls-47{fill:#545766;}.cls-48{fill:#555866;}.cls-49{fill:#555967;}.cls-50{fill:#565968;}.cls-51{fill:#575a68;}.cls-52{fill:#575a69;}.cls-53{fill:#585b69;}.cls-54{fill:#585c6a;}.cls-55{fill:#595c6a;}.cls-56{fill:#5a5d6b;}.cls-57{fill:#5a5e6c;}.cls-58{fill:#5b5e6c;}.cls-59{fill:#5c5f6d;}.cls-60{fill:#5d606e;}.cls-61{fill:#5d616e;}.cls-62{fill:#5e616f;}.cls-63{fill:#5f6270;}.cls-64{fill:#606371;}.cls-65{fill:#606471;}.cls-66{fill:#616472;}.cls-67{fill:#626573;}.cls-68{fill:#636674;}.cls-69{fill:#636774;}.cls-70{fill:#646775;}.cls-71{fill:#656875;}.cls-72{fill:#656876;}.cls-73{fill:#666977;}.cls-74{fill:#666a77;}.cls-75{fill:#676a78;}.cls-76{fill:#686b78;}.cls-77{fill:#686c79;}.cls-78{fill:#696c79;}.cls-79{fill:#696d7a;}.cls-80{fill:#6a6d7b;}.cls-81{fill:#6b6e7b;}.cls-82{fill:#6b6f7c;}.cls-83{fill:#6c6f7c;}.cls-84{fill:#6c707d;}.cls-85{fill:#6d707d;}.cls-86{fill:#6e717e;}.cls-87{fill:#6e727f;}.cls-88{fill:#6f727f;}.cls-89{fill:#6f7380;}.cls-90{fill:#707380;}.cls-91{fill:#717481;}.cls-92{fill:#717582;}.cls-93{fill:#727582;}.cls-94{fill:#727683;}.cls-95{fill:#737683;}.cls-96{fill:#747784;}.cls-97{fill:#747884;}.cls-98{fill:#757885;}.cls-99{fill:#767986;}.cls-100{fill:#777a87;}.cls-101{fill:#777b87;}.cls-102{fill:#787b88;}.cls-103{fill:#797c88;}.cls-104{fill:#797d89;}.cls-105{fill:#7a7d8a;}.cls-106{fill:#7a7e8a;}.cls-107{fill:#7b7e8b;}.cls-108{fill:#7c7f8b;}.cls-109{fill:#7c808c;}.cls-110{fill:#7d808d;}.cls-111{fill:#7d818d;}.cls-112{fill:#7e818e;}.cls-113{fill:#7f828e;}.cls-114{fill:#7f838f;}.cls-115{fill:#80838f;}.cls-116{fill:#808490;}.cls-117{fill:#818491;}.cls-118{fill:#828591;}.cls-119{fill:#828692;}.cls-120{fill:#838692;}.cls-121{fill:#838793;}.cls-122{fill:#848793;}.cls-123{fill:#858894;}.cls-124{fill:#858995;}.cls-125{fill:#868995;}.cls-126{fill:#868a96;}.cls-127{fill:#878b96;}.cls-128{fill:#888b97;}.cls-129{fill:#888c98;}.cls-130{fill:#898c98;}.cls-131{fill:#898d99;}.cls-132{fill:#8a8e99;}.cls-133{fill:#8b8e9a;}.cls-134{fill:#8b8f9a;}.cls-135{fill:#8c8f9b;}.cls-136{fill:#8c909c;}.cls-137{fill:#8d919c;}.cls-138{fill:#8e919d;}.cls-139{fill:#8e929d;}.cls-140{fill:#8f929e;}.cls-141{fill:#90939e;}.cls-142{fill:#90949f;}.cls-143{fill:#9194a0;}.cls-144{fill:#9195a0;}.cls-145{fill:#9295a1;}.cls-146{fill:#9396a1;}.cls-147{fill:#9397a2;}.cls-148{fill:#9497a2;}.cls-149{fill:#9498a3;}.cls-150{fill:#9598a4;}.cls-151{fill:#9699a4;}.cls-152{fill:#969aa5;}.cls-153{fill:#979aa5;}.cls-154{fill:#979ba6;}.cls-155{fill:#989ca7;}.cls-156{fill:#999ca7;}.cls-157{fill:#999da8;}.cls-158{fill:#9a9da8;}.cls-159{fill:#9a9ea9;}.cls-160{fill:#9b9fa9;}.cls-161{fill:#9c9faa;}.cls-162{fill:#9ca0ab;}.cls-163{fill:#9da0ab;}.cls-164{fill:#9da1ac;}.cls-165{fill:#9ea2ac;}.cls-166{fill:#9fa2ad;}.cls-167{fill:#9fa3ad;}.cls-168{fill:#a0a3ae;}.cls-169{fill:#a0a4af;}.cls-170{fill:#a1a5af;}.cls-171{fill:#a2a5b0;}.cls-172{fill:#a2a6b0;}.cls-173{fill:#a3a6b1;}.cls-174{fill:#a3a7b2;}.cls-175{fill:#a4a8b2;}.cls-176{fill:#a5a8b3;}.cls-177{fill:#a5a9b3;}.cls-178{fill:#a6aab4;}.cls-179{fill:#a7abb5;}.cls-180{fill:#a8abb6;}.cls-181{fill:#a8acb6;}.cls-182{fill:#a9adb7;}.cls-183{fill:#aaadb7;}.cls-184{fill:#aaaeb8;}.cls-185{fill:#abaeb8;}.cls-186{fill:#abafb9;}.cls-187{fill:#acb0ba;}.cls-188{fill:#adb0ba;}.cls-189{fill:#adb1bb;}.cls-190{fill:#aeb1bb;}.cls-191{fill:#aeb2bc;}.cls-192{fill:#afb3bd;}.cls-193{fill:#b0b3bd;}.cls-194{fill:#b0b4be;}.cls-195{fill:#b1b4be;}.cls-196{fill:#b1b5bf;}.cls-197{fill:#b2b6bf;}.cls-198{fill:#b3b6c0;}.cls-199{fill:#b3b7c1;}.cls-200{fill:#b4b7c1;}.cls-201{fill:#b4b8c2;}.cls-202{fill:#b5b9c2;}.cls-203{fill:#b6b9c3;}.cls-204{fill:#b6bac3;}.cls-205{fill:#b7bbc4;}.cls-206{fill:#b7bbc5;}.cls-207{fill:#b8bcc5;}.cls-208{fill:#b9bcc6;}.cls-209{fill:#b9bdc6;}.cls-210{fill:#babec7;}.cls-211{fill:#bbbfc8;}.cls-212{fill:#bcbfc9;}.cls-213{fill:#bcc0c9;}.cls-214{fill:#bdc1ca;}.cls-215{fill:#bec2cb;}.cls-216{fill:#bfc2cc;}.cls-217{fill:#bfc3cc;}.cls-218{fill:#c0c4cd;}.cls-219{fill:#c1c5ce;}.cls-220{fill:#c2c5ce;}.cls-221{fill:#c2c6cf;}.cls-222{fill:#c3c7d0;}.cls-223{fill:#c4c7d0;}.cls-224{fill:#c4c8d1;}.cls-225{fill:#c5c9d1;}.cls-226{fill:#c5c9d2;}.cls-227{fill:#c6cad2;}.cls-228{fill:#c7cad3;}.cls-229{fill:#c7cbd4;}.cls-230{fill:#c8ccd4;}.cls-231{fill:#c8ccd5;}.cls-232{fill:#c9cdd5;}.cls-233{fill:#cacdd6;}.cls-234{fill:#caced7;}.cls-235{fill:#cbcfd7;}.cls-236{fill:#cbcfd8;}.cls-237{fill:#ccd0d8;}.cls-238{fill:#cdd0d9;}.cls-239{fill:#cdd1d9;}.cls-240{fill:#ced2da;}.cls-241{fill:#ced2db;}.cls-242{fill:#cfd3db;}.cls-243{fill:#d0d3dc;}.cls-244{fill:#d0d4dc;}.cls-245{fill:#d1d5dd;}.cls-246{fill:#d2d6de;}.cls-247{fill:#d3d7df;}.cls-248{fill:#d4d8e0;}.cls-249{fill:#d5d9e1;}.cls-250{fill:#d6dae2;}.cls-251{fill:#d7dbe3;}.cls-252{fill:#d8dce4;}.cls-253{fill:#d9dde4;}.cls-254{fill:#d9dde5;}.cls-255{fill:#dadee6;}.cls-256{fill:#dbdfe7;}.cls-257{fill:#dce0e7;}.cls-258{fill:#dce0e8;}.cls-259{fill:#dde1e8;}.cls-260{fill:#dee1e9;}.cls-261{fill:#dee2ea;}.cls-262{fill:#dfe3ea;}.cls-263{fill:#dfe3eb;}.cls-264{fill:#e0e4eb;}.cls-265{fill:#e1e4ec;}.cls-266{fill:#e1e5ec;}.cls-267{fill:#e2e6ed;}.cls-268{fill:#e2e6ee;}.cls-269{fill:#e3e7ee;}.cls-270{fill:#e4e8ef;}.cls-271{fill:#e5e9f0;}.cls-272{fill:#e5e9f1;}.cls-273{fill:#e6eaf1;}.cls-274{fill:#e7ebf2;}.cls-275{fill:#e8ecf3;}.cls-276,.cls-277{fill:#e9edf4;}.cls-278{fill:#eaedf4;}.cls-279{fill:#eaeef4;}.cls-280{fill:#eaeef5;}.cls-281{fill:#ebeef5;}.cls-282{fill:#ebeff5;}.cls-283{fill:#eceff5;}.cls-284{fill:#ecf0f6;}.cls-285{fill:#edf0f6;}.cls-286{fill:#edf1f6;}.cls-287{fill:#eef1f6;}.cls-288{fill:#eef1f7;}.cls-289{fill:#eff2f7;}.cls-290{fill:#f0f2f7;}.cls-291{fill:#f0f3f7;}.cls-292{fill:#f0f3f8;}.cls-293{fill:#f1f3f8;}.cls-294{fill:#f1f4f8;}.cls-295{fill:#f2f4f8;}.cls-296{fill:#f2f4f9;}.cls-297{fill:#f2f5f9;}.cls-298{fill:#f3f5f9;}.cls-299{fill:#f3f6f9;}.cls-300{fill:#f4f6f9;}.cls-301{fill:#f4f6fa;}.cls-302{fill:#f5f6fa;}.cls-303{fill:#f5f7fa;}.cls-304{fill:#f6f7fa;}.cls-305{fill:#f6f8fa;}.cls-306{fill:#f6f8fb;}.cls-307{fill:#f7f8fb;}.cls-308{fill:#f7f9fb;}.cls-309{fill:#f8f9fb;}.cls-310{fill:#f8f9fc;}.cls-311{fill:#f8fafc;}.cls-312{fill:#f9fafc;}.cls-313{fill:#fafbfc;}.cls-314{fill:#fafbfd;}.cls-315{fill:#fbfbfd;}.cls-316{fill:#fbfcfd;}.cls-317{fill:#fcfcfd;}.cls-318{fill:#fcfdfe;}.cls-319{fill:#fdfdfe;}.cls-320{fill:#fdfefe;}.cls-321{fill:#fefefe;}.cls-322{fill:#fefeff;}.cls-323{fill:#feffff;}.cls-324,.cls-325{fill:#fff;}</style></defs><g id="Layer_5" data-name="Layer 5"><text class="cls-1" transform="matrix(0.87, -0.5, 0.87, 0.5, 174.94, 532.76)">N</text><path class="cls-2" d="M286.2,467.39,122.08,440.34l105.48,60.9L190,522.94,20.8,425.27l37.59-21.7,164.12,27L117,369.71,154.62,348l169.17,97.67Z"/><path class="cls-2" d="M286.2,466.25,122.08,439.2l105.48,60.9L190,521.81,20.8,424.13l37.59-21.7,164.12,27.05L117,368.57l37.59-21.7,169.17,97.68Z"/><path class="cls-3" d="M286.2,465.11,122.08,438.06,227.56,499,190,520.67,20.8,423l37.59-21.7,164.12,27L117,367.44l37.59-21.71,169.17,97.68Z"/><path class="cls-3" d="M286.2,464l-164.12-27,105.48,60.9L190,519.53,20.8,421.86l37.59-21.71L222.51,427.2,117,366.3l37.59-21.7,169.17,97.67Z"/><path class="cls-4" d="M286.2,462.83l-164.12-27,105.48,60.9L190,518.39,20.8,420.72,58.39,399l164.12,27L117,365.16l37.59-21.7,169.17,97.67Z"/><path class="cls-5" d="M286.2,461.7,122.08,434.65l105.48,60.9L190,517.25,20.8,419.58l37.59-21.7,164.12,27L117,364l37.59-21.7L323.79,440Z"/><path class="cls-6" d="M286.2,460.56,122.08,433.51l105.48,60.9L190,516.12,20.8,418.44l37.59-21.7,164.12,27.05L117,362.88l37.59-21.7,169.17,97.68Z"/><path class="cls-7" d="M286.2,459.42,122.08,432.37l105.48,60.91L190,515,20.8,417.3l37.59-21.7,164.12,27L117,361.75,154.62,340l169.17,97.68Z"/><path class="cls-7" d="M286.2,458.28l-164.12-27,105.48,60.9L190,513.84,20.8,416.17l37.59-21.71,164.12,27.05L117,360.61l37.59-21.7,169.17,97.67Z"/><path class="cls-8" d="M286.2,457.14l-164.12-27L227.56,491,190,512.7,20.8,415l37.59-21.7,164.12,27L117,359.47l37.59-21.7,169.17,97.67Z"/><path class="cls-9" d="M286.2,456,122.08,429l105.48,60.9L190,511.57,20.8,413.89l37.59-21.7,164.12,27.05L117,358.33l37.59-21.7L323.79,434.3Z"/><path class="cls-10" d="M286.2,454.87,122.08,427.82l105.48,60.91L190,510.43,20.8,412.75l37.59-21.7L222.51,418.1,117,357.19l37.59-21.7,169.17,97.68Z"/><path class="cls-11" d="M286.2,453.73,122.08,426.68l105.48,60.91L190,509.29,20.8,411.62l37.59-21.71,164.12,27L117,356.06l37.59-21.71L323.79,432Z"/><path class="cls-12" d="M286.2,452.59l-164.12-27,105.48,60.9L190,508.15,20.8,410.48l37.59-21.7,164.12,27L117,354.92l37.59-21.7,169.17,97.67Z"/><path class="cls-13" d="M286.2,451.46l-164.12-27,105.48,60.9L190,507,20.8,409.34l37.59-21.7,164.12,27L117,353.78l37.59-21.7,169.17,97.67Z"/><path class="cls-14" d="M286.2,450.32,122.08,423.27l105.48,60.9L190,505.88,20.8,408.2l37.59-21.7,164.12,27.05L117,352.64l37.59-21.7,169.17,97.68Z"/><path class="cls-15" d="M286.2,449.18,122.08,422.13,227.56,483,190,504.74,20.8,407.06l37.59-21.7,164.12,27.05L117,351.51l37.59-21.71,169.17,97.68Z"/><path class="cls-16" d="M286.2,448,122.08,421l105.48,60.9L190,503.6,20.8,405.93l37.59-21.71,164.12,27L117,350.37l37.59-21.7,169.17,97.67Z"/><path class="cls-17" d="M286.2,446.9l-164.12-27,105.48,60.9L190,502.46,20.8,404.79l37.59-21.7,164.12,27L117,349.23l37.59-21.7L323.79,425.2Z"/><path class="cls-18" d="M286.2,445.77l-164.12-27,105.48,60.9L190,501.33,20.8,403.65,58.39,382l164.12,27L117,348.09l37.59-21.7,169.17,97.67Z"/><path class="cls-19" d="M286.2,444.63,122.08,417.58l105.48,60.9L190,500.19,20.8,402.51l37.59-21.7,164.12,27.05L117,347l37.59-21.7,169.17,97.68Z"/><path class="cls-20" d="M286.2,443.49,122.08,416.44l105.48,60.91L190,499.05,20.8,401.38l37.59-21.71,164.12,27.05L117,345.82l37.59-21.71,169.17,97.68Z"/><path class="cls-21" d="M286.2,442.35l-164.12-27,105.48,60.9L190,497.91,20.8,400.24l37.59-21.7,164.12,27L117,344.68,154.62,323l169.17,97.67Z"/><path class="cls-22" d="M286.2,441.22,122.08,414.17l105.48,60.9L190,496.77,20.8,399.1l37.59-21.7,164.12,27L117,343.54l37.59-21.7,169.17,97.67Z"/><path class="cls-22" d="M286.2,440.08,122.08,413l105.48,60.9L190,495.64,20.8,398l37.59-21.7,164.12,27.05L117,342.4l37.59-21.7,169.17,97.67Z"/><path class="cls-23" d="M286.2,438.94,122.08,411.89,227.56,472.8,190,494.5,20.8,396.82l37.59-21.7,164.12,27.05L117,341.27l37.59-21.71,169.17,97.68Z"/><path class="cls-24" d="M286.2,437.8l-164.12-27,105.48,60.9L190,493.36,20.8,395.69,58.39,374l164.12,27L117,340.13l37.59-21.7L323.79,416.1Z"/><path class="cls-25" d="M286.2,436.66l-164.12-27,105.48,60.9L190,492.22,20.8,394.55l37.59-21.7,164.12,27L117,339l37.59-21.7L323.79,415Z"/><path class="cls-26" d="M286.2,435.53l-164.12-27,105.48,60.9L190,491.08,20.8,393.41l37.59-21.7,164.12,27L117,337.85l37.59-21.7,169.17,97.67Z"/><path class="cls-26" d="M286.2,434.39,122.08,407.34l105.48,60.9L190,490,20.8,392.27l37.59-21.7,164.12,27.05L117,336.71,154.62,315l169.17,97.68Z"/><path class="cls-27" d="M286.2,433.25,122.08,406.2l105.48,60.91L190,488.81,20.8,391.13l37.59-21.7,164.12,27.05L117,335.58l37.59-21.71,169.17,97.68Z"/><path class="cls-27" d="M286.2,432.11l-164.12-27L227.56,466,190,487.67,20.8,390l37.59-21.71,164.12,27L117,334.44l37.59-21.7,169.17,97.67Z"/><path class="cls-28" d="M286.2,431l-164.12-27,105.48,60.9L190,486.53,20.8,388.86l37.59-21.7,164.12,27L117,333.3l37.59-21.7,169.17,97.67Z"/><path class="cls-29" d="M286.2,429.84l-164.12-27,105.48,60.9L190,485.4,20.8,387.72,58.39,366l164.12,27.05L117,332.16l37.59-21.7,169.17,97.67Z"/><path class="cls-29" d="M286.2,428.7,122.08,401.65l105.48,60.9L190,484.26,20.8,386.58l37.59-21.7,164.12,27.05L117,331l37.59-21.7L323.79,407Z"/><path class="cls-30" d="M286.2,427.56,122.08,400.51l105.48,60.91L190,483.12,20.8,385.45l37.59-21.71,164.12,27.05L117,329.89l37.59-21.71,169.17,97.68Z"/><path class="cls-30" d="M286.2,426.42l-164.12-27,105.48,60.9L190,482,20.8,384.31l37.59-21.7,164.12,27L117,328.75l37.59-21.7,169.17,97.67Z"/><path class="cls-31" d="M286.2,425.29,122.08,398.24l105.48,60.9L190,480.84,20.8,383.17l37.59-21.7,164.12,27L117,327.61l37.59-21.7,169.17,97.67Z"/><path class="cls-32" d="M286.2,424.15l-164.12-27L227.56,458,190,479.71,20.8,382l37.59-21.7,164.12,27.05L117,326.47l37.59-21.7,169.17,97.67Z"/><path class="cls-32" d="M286.2,423,122.08,396l105.48,60.91L190,478.57,20.8,380.89l37.59-21.7,164.12,27.05L117,325.34l37.59-21.71,169.17,97.68Z"/><path class="cls-33" d="M286.2,421.87l-164.12-27,105.48,60.9L190,477.43,20.8,379.76l37.59-21.71L222.51,385.1,117,324.2l37.59-21.7,169.17,97.67Z"/><path class="cls-34" d="M286.2,420.73l-164.12-27,105.48,60.9L190,476.29,20.8,378.62l37.59-21.7,164.12,27L117,323.06l37.59-21.7L323.79,399Z"/><path class="cls-35" d="M286.2,419.6,122.08,392.55l105.48,60.9L190,475.15,20.8,377.48l37.59-21.7,164.12,27L117,321.92l37.59-21.7,169.17,97.67Z"/><path class="cls-36" d="M286.2,418.46l-164.12-27,105.48,60.9L190,474,20.8,376.34l37.59-21.7,164.12,27.05L117,320.78l37.59-21.7,169.17,97.68Z"/><path class="cls-37" d="M286.2,417.32,122.08,390.27l105.48,60.91L190,472.88,20.8,375.2l37.59-21.7,164.12,27.05L117,319.65l37.59-21.71,169.17,97.68Z"/><path class="cls-38" d="M286.2,416.18l-164.12-27L227.56,450,190,471.74,20.8,374.07l37.59-21.71,164.12,27.05L117,318.51l37.59-21.7,169.17,97.67Z"/><path class="cls-39" d="M286.2,415,122.08,388l105.48,60.9L190,470.6,20.8,372.93l37.59-21.7,164.12,27L117,317.37l37.59-21.7,169.17,97.67Z"/><path class="cls-40" d="M286.2,413.91,122.08,386.86l105.48,60.9L190,469.47,20.8,371.79l37.59-21.7,164.12,27.05L117,316.23l37.59-21.7L323.79,392.2Z"/><path class="cls-41" d="M286.2,412.77l-164.12-27,105.48,60.91L190,468.33,20.8,370.65,58.39,349,222.51,376,117,315.09l37.59-21.7,169.17,97.68Z"/><path class="cls-42" d="M286.2,411.63,122.08,384.58l105.48,60.91L190,467.19,20.8,369.52l37.59-21.71,164.12,27.05L117,314l37.59-21.71,169.17,97.68Z"/><path class="cls-43" d="M286.2,410.49l-164.12-27,105.48,60.9L190,466.05,20.8,368.38l37.59-21.7,164.12,27L117,312.82l37.59-21.7,169.17,97.67Z"/><path class="cls-44" d="M286.2,409.36,122.08,382.31l105.48,60.9L190,464.91,20.8,367.24l37.59-21.7,164.12,27L117,311.68,154.62,290l169.17,97.67Z"/><path class="cls-45" d="M286.2,408.22,122.08,381.17l105.48,60.9L190,463.78,20.8,366.1l37.59-21.7,164.12,27.05L117,310.54l37.59-21.7,169.17,97.68Z"/><path class="cls-46" d="M286.2,407.08,122.08,380l105.48,60.91L190,462.64,20.8,365l37.59-21.7,164.12,27.05L117,309.41l37.59-21.71,169.17,97.68Z"/><path class="cls-47" d="M286.2,405.94l-164.12-27,105.48,60.9L190,461.5,20.8,363.83l37.59-21.71,164.12,27.05L117,308.27l37.59-21.7,169.17,97.67Z"/><path class="cls-48" d="M286.2,404.8l-164.12-27,105.48,60.9L190,460.36,20.8,362.69,58.39,341l164.12,27L117,307.13l37.59-21.7L323.79,383.1Z"/><path class="cls-49" d="M286.2,403.67,122.08,376.62l105.48,60.9L190,459.22,20.8,361.55l37.59-21.7,164.12,27L117,306l37.59-21.7L323.79,382Z"/><path class="cls-50" d="M286.2,402.53l-164.12-27,105.48,60.9L190,458.09,20.8,360.41l37.59-21.7,164.12,27.05L117,304.85l37.59-21.7,169.17,97.68Z"/><path class="cls-51" d="M286.2,401.39,122.08,374.34l105.48,60.91L190,457,20.8,359.27l37.59-21.7,164.12,27.05L117,303.72,154.62,282l169.17,97.68Z"/><path class="cls-52" d="M286.2,400.25l-164.12-27,105.48,60.9L190,455.81,20.8,358.14l37.59-21.71,164.12,27.05L117,302.58l37.59-21.7,169.17,97.67Z"/><path class="cls-53" d="M286.2,399.11l-164.12-27L227.56,433,190,454.67,20.8,357l37.59-21.7,164.12,27L117,301.44l37.59-21.7,169.17,97.67Z"/><path class="cls-54" d="M286.2,398,122.08,370.93l105.48,60.9L190,453.54,20.8,355.86l37.59-21.7,164.12,27L117,300.3l37.59-21.7,169.17,97.67Z"/><path class="cls-55" d="M286.2,396.84l-164.12-27L227.56,430.7,190,452.4,20.8,354.72,58.39,333l164.12,27.05L117,299.16l37.59-21.7,169.17,97.68Z"/><path class="cls-56" d="M286.2,395.7,122.08,368.65l105.48,60.91L190,451.26,20.8,353.59l37.59-21.71,164.12,27.05L117,298l37.59-21.71L323.79,374Z"/><path class="cls-57" d="M286.2,394.56l-164.12-27,105.48,60.9L190,450.12,20.8,352.45l37.59-21.7,164.12,27L117,296.89l37.59-21.7,169.17,97.67Z"/><path class="cls-58" d="M286.2,393.43,122.08,366.38l105.48,60.9L190,449,20.8,351.31l37.59-21.7,164.12,27L117,295.75l37.59-21.7,169.17,97.67Z"/><path class="cls-59" d="M286.2,392.29,122.08,365.24l105.48,60.9L190,447.85,20.8,350.17l37.59-21.7,164.12,27L117,294.61l37.59-21.7,169.17,97.68Z"/><path class="cls-59" d="M286.2,391.15l-164.12-27L227.56,425,190,446.71,20.8,349l37.59-21.7,164.12,27.05L117,293.48l37.59-21.71,169.17,97.68Z"/><path class="cls-60" d="M286.2,390,122.08,363l105.48,60.9L190,445.57,20.8,347.9l37.59-21.71,164.12,27.05L117,292.34l37.59-21.7,169.17,97.67Z"/><path class="cls-61" d="M286.2,388.87l-164.12-27,105.48,60.9L190,444.43,20.8,346.76l37.59-21.7,164.12,27L117,291.2l37.59-21.7,169.17,97.67Z"/><path class="cls-62" d="M286.2,387.74,122.08,360.69l105.48,60.9L190,443.3,20.8,345.62l37.59-21.7,164.12,27L117,290.06l37.59-21.7L323.79,366Z"/><path class="cls-63" d="M286.2,386.6,122.08,359.55l105.48,60.9L190,442.16,20.8,344.48l37.59-21.7,164.12,27.05L117,288.92l37.59-21.7L323.79,364.9Z"/><path class="cls-63" d="M286.2,385.46l-164.12-27,105.48,60.91L190,441,20.8,343.35l37.59-21.71,164.12,27.05L117,287.79l37.59-21.71,169.17,97.68Z"/><path class="cls-64" d="M286.2,384.32l-164.12-27,105.48,60.9L190,439.88,20.8,342.21,58.39,320.5l164.12,27.05L117,286.65,154.62,265l169.17,97.67Z"/><path class="cls-65" d="M286.2,383.19,122.08,356.14,227.56,417,190,438.74,20.8,341.07l37.59-21.7,164.12,27L117,285.51l37.59-21.7,169.17,97.67Z"/><path class="cls-66" d="M286.2,382.05,122.08,355l105.48,60.9L190,437.61,20.8,339.93l37.59-21.7,164.12,27L117,284.37l37.59-21.7,169.17,97.67Z"/><path class="cls-67" d="M286.2,380.91,122.08,353.86l105.48,60.91L190,436.47,20.8,338.79l37.59-21.7,164.12,27.05L117,283.24l37.59-21.71,169.17,97.68Z"/><path class="cls-67" d="M286.2,379.77l-164.12-27,105.48,60.9L190,435.33,20.8,337.66,58.39,316,222.51,343,117,282.1l37.59-21.71,169.17,97.68Z"/><path class="cls-68" d="M286.2,378.63l-164.12-27,105.48,60.9L190,434.19,20.8,336.52l37.59-21.7,164.12,27L117,281l37.59-21.7,169.17,97.67Z"/><path class="cls-69" d="M286.2,377.5,122.08,350.45l105.48,60.9L190,433.05,20.8,335.38l37.59-21.7,164.12,27L117,279.82l37.59-21.7,169.17,97.67Z"/><path class="cls-70" d="M286.2,376.36,122.08,349.31l105.48,60.9L190,431.92,20.8,334.24l37.59-21.7,164.12,27L117,278.68,154.62,257l169.17,97.68Z"/><path class="cls-71" d="M286.2,375.22,122.08,348.17l105.48,60.91L190,430.78,20.8,333.1l37.59-21.7,164.12,27.05L117,277.55l37.59-21.71,169.17,97.68Z"/><path class="cls-72" d="M286.2,374.08,122.08,347l105.48,60.9L190,429.64,20.8,332l37.59-21.71,164.12,27.05L117,276.41l37.59-21.7,169.17,97.67Z"/><path class="cls-73" d="M286.2,372.94l-164.12-27,105.48,60.9L190,428.5,20.8,330.83l37.59-21.7,164.12,27L117,275.27l37.59-21.7,169.17,97.67Z"/><path class="cls-74" d="M286.2,371.81,122.08,344.76l105.48,60.9L190,427.37,20.8,329.69,58.39,308,222.51,335,117,274.13l37.59-21.7L323.79,350.1Z"/><path class="cls-75" d="M286.2,370.67,122.08,343.62l105.48,60.9L190,426.23,20.8,328.55l37.59-21.7,164.12,27L117,273l37.59-21.7L323.79,349Z"/><path class="cls-76" d="M286.2,369.53l-164.12-27,105.48,60.91L190,425.09,20.8,327.42l37.59-21.71,164.12,27.05L117,271.86l37.59-21.71,169.17,97.68Z"/><path class="cls-77" d="M286.2,368.39l-164.12-27,105.48,60.9L190,424,20.8,326.28l37.59-21.7,164.12,27L117,270.72,154.62,249l169.17,97.67Z"/><path class="cls-78" d="M286.2,367.26,122.08,340.21l105.48,60.9L190,422.81,20.8,325.14l37.59-21.7,164.12,27L117,269.58l37.59-21.7,169.17,97.67Z"/><path class="cls-79" d="M286.2,366.12,122.08,339.07,227.56,400,190,421.68,20.8,324l37.59-21.7,164.12,27.05L117,268.44l37.59-21.7,169.17,97.67Z"/><path class="cls-80" d="M286.2,365,122.08,337.93l105.48,60.91L190,420.54,20.8,322.86l37.59-21.7,164.12,27L117,267.31l37.59-21.71,169.17,97.68Z"/><path class="cls-81" d="M286.2,363.84l-164.12-27,105.48,60.9L190,419.4,20.8,321.73,58.39,300l164.12,27.05L117,266.17l37.59-21.7,169.17,97.67Z"/><path class="cls-82" d="M286.2,362.7l-164.12-27,105.48,60.9L190,418.26,20.8,320.59l37.59-21.7,164.12,27L117,265l37.59-21.7L323.79,341Z"/><path class="cls-83" d="M286.2,361.57,122.08,334.52l105.48,60.9L190,417.12,20.8,319.45l37.59-21.7,164.12,27L117,263.89l37.59-21.7,169.17,97.67Z"/><path class="cls-84" d="M286.2,360.43,122.08,333.38l105.48,60.9L190,416,20.8,318.31l37.59-21.7,164.12,27.05L117,262.75l37.59-21.7,169.17,97.68Z"/><path class="cls-85" d="M286.2,359.29,122.08,332.24l105.48,60.91L190,414.85,20.8,317.17l37.59-21.7,164.12,27L117,261.62l37.59-21.71,169.17,97.68Z"/><path class="cls-86" d="M286.2,358.15l-164.12-27L227.56,392,190,413.71,20.8,316l37.59-21.71,164.12,27.05L117,260.48l37.59-21.7,169.17,97.67Z"/><path class="cls-87" d="M286.2,357,122.08,330l105.48,60.9L190,412.57,20.8,314.9l37.59-21.7,164.12,27L117,259.34l37.59-21.7,169.17,97.67Z"/><path class="cls-88" d="M286.2,355.88,122.08,328.83l105.48,60.9L190,411.44,20.8,313.76l37.59-21.7,164.12,27.05L117,258.2l37.59-21.7,169.17,97.67Z"/><path class="cls-89" d="M286.2,354.74,122.08,327.69,227.56,388.6,190,410.3,20.8,312.62l37.59-21.7L222.51,318,117,257.06l37.59-21.7L323.79,333Z"/><path class="cls-90" d="M286.2,353.6,122.08,326.55l105.48,60.91L190,409.16,20.8,311.49l37.59-21.71,164.12,27.05L117,255.93l37.59-21.71L323.79,331.9Z"/><path class="cls-91" d="M286.2,352.46l-164.12-27,105.48,60.9L190,408,20.8,310.35l37.59-21.7,164.12,27L117,254.79l37.59-21.7,169.17,97.67Z"/><path class="cls-92" d="M286.2,351.33,122.08,324.28l105.48,60.9L190,406.88,20.8,309.21l37.59-21.7,164.12,27L117,253.65,154.62,232l169.17,97.67Z"/><path class="cls-93" d="M286.2,350.19,122.08,323.14,227.56,384,190,405.75,20.8,308.07l37.59-21.7,164.12,27.05L117,252.51l37.59-21.7,169.17,97.68Z"/><path class="cls-94" d="M286.2,349.05,122.08,322l105.48,60.91L190,404.61,20.8,306.93l37.59-21.7,164.12,27L117,251.38l37.59-21.71,169.17,97.68Z"/><path class="cls-95" d="M286.2,347.91l-164.12-27,105.48,60.9L190,403.47,20.8,305.8l37.59-21.71,164.12,27.05L117,250.24l37.59-21.7,169.17,97.67Z"/><path class="cls-96" d="M286.2,346.77l-164.12-27,105.48,60.9L190,402.33,20.8,304.66,58.39,283l164.12,27L117,249.1l37.59-21.7,169.17,97.67Z"/><path class="cls-97" d="M286.2,345.64,122.08,318.59l105.48,60.9L190,401.19,20.8,303.52l37.59-21.7,164.12,27L117,248l37.59-21.7,169.17,97.67Z"/><path class="cls-98" d="M286.2,344.5,122.08,317.45l105.48,60.9L190,400.06,20.8,302.38l37.59-21.7,164.12,27.05L117,246.82l37.59-21.7L323.79,322.8Z"/><path class="cls-99" d="M286.2,343.36,122.08,316.31l105.48,60.91L190,398.92,20.8,301.24l37.59-21.7,164.12,27L117,245.69,154.62,224l169.17,97.68Z"/><path class="cls-99" d="M286.2,342.22l-164.12-27,105.48,60.9L190,397.78,20.8,300.11,58.39,278.4l164.12,27.05L117,244.55l37.59-21.7,169.17,97.67Z"/><path class="cls-100" d="M286.2,341.08,122.08,314l105.48,60.9L190,396.64,20.8,299l37.59-21.7,164.12,27L117,243.41l37.59-21.7,169.17,97.67Z"/><path class="cls-101" d="M286.2,340,122.08,312.9l105.48,60.9L190,395.51,20.8,297.83l37.59-21.7,164.12,27.05L117,242.27l37.59-21.7,169.17,97.67Z"/><path class="cls-102" d="M286.2,338.81,122.08,311.76l105.48,60.91L190,394.37,20.8,296.69,58.39,275,222.51,302,117,241.13l37.59-21.7,169.17,97.68Z"/><path class="cls-103" d="M286.2,337.67,122.08,310.62l105.48,60.91L190,393.23,20.8,295.56l37.59-21.71,164.12,27L117,240l37.59-21.71L323.79,316Z"/><path class="cls-104" d="M286.2,336.53l-164.12-27,105.48,60.9L190,392.09,20.8,294.42l37.59-21.7,164.12,27L117,238.86l37.59-21.7,169.17,97.67Z"/><path class="cls-105" d="M286.2,335.4l-164.12-27,105.48,60.9L190,391,20.8,293.28l37.59-21.7,164.12,27L117,237.72,154.62,216l169.17,97.67Z"/><path class="cls-106" d="M286.2,334.26,122.08,307.21l105.48,60.9L190,389.82,20.8,292.14l37.59-21.7,164.12,27.05L117,236.58l37.59-21.7,169.17,97.68Z"/><path class="cls-107" d="M286.2,333.12,122.08,306.07,227.56,367,190,388.68,20.8,291l37.59-21.7,164.12,27.05L117,235.45l37.59-21.71,169.17,97.68Z"/><path class="cls-108" d="M286.2,332l-164.12-27,105.48,60.9L190,387.54,20.8,289.87l37.59-21.71,164.12,27L117,234.31l37.59-21.7,169.17,97.67Z"/><path class="cls-109" d="M286.2,330.84l-164.12-27,105.48,60.9L190,386.4,20.8,288.73,58.39,267l164.12,27L117,233.17l37.59-21.7,169.17,97.67Z"/><path class="cls-110" d="M286.2,329.71l-164.12-27,105.48,60.9L190,385.27,20.8,287.59l37.59-21.7,164.12,27.05L117,232l37.59-21.7L323.79,308Z"/><path class="cls-111" d="M286.2,328.57,122.08,301.52l105.48,60.9L190,384.13,20.8,286.45l37.59-21.7L222.51,291.8,117,230.89l37.59-21.7,169.17,97.68Z"/><path class="cls-112" d="M286.2,327.43,122.08,300.38l105.48,60.91L190,383,20.8,285.32l37.59-21.71,164.12,27.05L117,229.76l37.59-21.71,169.17,97.68Z"/><path class="cls-113" d="M286.2,326.29l-164.12-27,105.48,60.9L190,381.85,20.8,284.18l37.59-21.71,164.12,27L117,228.62l37.59-21.7,169.17,97.67Z"/><path class="cls-114" d="M286.2,325.16,122.08,298.11,227.56,359,190,380.71,20.8,283l37.59-21.7,164.12,27L117,227.48l37.59-21.7,169.17,97.67Z"/><path class="cls-115" d="M286.2,324,122.08,297l105.48,60.9L190,379.58,20.8,281.9l37.59-21.7,164.12,27.05L117,226.34l37.59-21.7,169.17,97.67Z"/><path class="cls-116" d="M286.2,322.88,122.08,295.83l105.48,60.91L190,378.44,20.8,280.76l37.59-21.7,164.12,27.05L117,225.21l37.59-21.71,169.17,97.68Z"/><path class="cls-117" d="M286.2,321.74,122.08,294.69,227.56,355.6,190,377.3,20.8,279.63l37.59-21.71L222.51,285,117,224.07l37.59-21.71L323.79,300Z"/><path class="cls-118" d="M286.2,320.6l-164.12-27,105.48,60.9L190,376.16,20.8,278.49l37.59-21.7,164.12,27L117,222.93l37.59-21.7L323.79,298.9Z"/><path class="cls-119" d="M286.2,319.47,122.08,292.42l105.48,60.9L190,375,20.8,277.35l37.59-21.7,164.12,27L117,221.79l37.59-21.7,169.17,97.67Z"/><path class="cls-120" d="M286.2,318.33,122.08,291.28l105.48,60.9L190,373.89,20.8,276.21l37.59-21.7,164.12,27.05L117,220.65,154.62,199l169.17,97.68Z"/><path class="cls-121" d="M286.2,317.19,122.08,290.14l105.48,60.91L190,372.75,20.8,275.07l37.59-21.7,164.12,27.05L117,219.52l37.59-21.71,169.17,97.68Z"/><path class="cls-122" d="M286.2,316.05,122.08,289l105.48,60.9L190,371.61,20.8,273.94l37.59-21.71,164.12,27L117,218.38l37.59-21.7,169.17,97.67Z"/><path class="cls-123" d="M286.2,314.91l-164.12-27,105.48,60.9L190,370.47,20.8,272.8l37.59-21.7,164.12,27L117,217.24l37.59-21.7,169.17,97.67Z"/><path class="cls-124" d="M286.2,313.78l-164.12-27,105.48,60.9L190,369.34,20.8,271.66,58.39,250l164.12,27L117,216.1l37.59-21.7,169.17,97.67Z"/><path class="cls-125" d="M286.2,312.64,122.08,285.59,227.56,346.5,190,368.2,20.8,270.52l37.59-21.7,164.12,27.05L117,215l37.59-21.7,169.17,97.68Z"/><path class="cls-126" d="M286.2,311.5,122.08,284.45l105.48,60.91L190,367.06,20.8,269.39l37.59-21.71,164.12,27.05L117,213.83l37.59-21.71L323.79,289.8Z"/><path class="cls-127" d="M286.2,310.36l-164.12-27,105.48,60.9L190,365.92,20.8,268.25l37.59-21.7,164.12,27L117,212.69,154.62,191l169.17,97.67Z"/><path class="cls-128" d="M286.2,309.23,122.08,282.18l105.48,60.9L190,364.78,20.8,267.11l37.59-21.7,164.12,27L117,211.55l37.59-21.7,169.17,97.67Z"/><path class="cls-129" d="M286.2,308.09,122.08,281l105.48,60.9L190,363.65,20.8,266l37.59-21.7,164.12,27L117,210.41l37.59-21.7,169.17,97.68Z"/><path class="cls-130" d="M286.2,307,122.08,279.9l105.48,60.91L190,362.51,20.8,264.83l37.59-21.7,164.12,27.05L117,209.28l37.59-21.71,169.17,97.68Z"/><path class="cls-131" d="M286.2,305.81l-164.12-27,105.48,60.9L190,361.37,20.8,263.7,58.39,242,222.51,269,117,208.14l37.59-21.7,169.17,97.67Z"/><path class="cls-132" d="M286.2,304.67l-164.12-27,105.48,60.9L190,360.23,20.8,262.56l37.59-21.7,164.12,27L117,207l37.59-21.7L323.79,283Z"/><path class="cls-133" d="M286.2,303.54,122.08,276.49l105.48,60.9L190,359.09,20.8,261.42l37.59-21.7,164.12,27L117,205.86l37.59-21.7,169.17,97.67Z"/><path class="cls-134" d="M286.2,302.4l-164.12-27,105.48,60.9L190,358,20.8,260.28l37.59-21.7,164.12,27L117,204.72,154.62,183,323.79,280.7Z"/><path class="cls-135" d="M286.2,301.26,122.08,274.21l105.48,60.91L190,356.82,20.8,259.14l37.59-21.7,164.12,27.05L117,203.59l37.59-21.71,169.17,97.68Z"/><path class="cls-136" d="M286.2,300.12l-164.12-27L227.56,334,190,355.68,20.8,258,58.39,236.3l164.12,27.05L117,202.45l37.59-21.7,169.17,97.67Z"/><path class="cls-137" d="M286.2,299l-164.12-27,105.48,60.9L190,354.54,20.8,256.87l37.59-21.7,164.12,27L117,201.31l37.59-21.7,169.17,97.67Z"/><path class="cls-138" d="M286.2,297.85,122.08,270.8l105.48,60.9L190,353.41,20.8,255.73,58.39,234l164.12,27L117,200.17l37.59-21.7,169.17,97.67Z"/><path class="cls-139" d="M286.2,296.71l-164.12-27,105.48,60.91L190,352.27,20.8,254.59l37.59-21.7,164.12,27.05L117,199l37.59-21.7L323.79,275Z"/><path class="cls-140" d="M286.2,295.57,122.08,268.52l105.48,60.91L190,351.13,20.8,253.46l37.59-21.71L222.51,258.8,117,197.9l37.59-21.71,169.17,97.68Z"/><path class="cls-141" d="M286.2,294.43l-164.12-27,105.48,60.9L190,350,20.8,252.32l37.59-21.7,164.12,27L117,196.76l37.59-21.7,169.17,97.67Z"/><path class="cls-142" d="M286.2,293.3,122.08,266.25l105.48,60.9L190,348.85,20.8,251.18l37.59-21.7,164.12,27L117,195.62l37.59-21.7,169.17,97.67Z"/><path class="cls-143" d="M286.2,292.16,122.08,265.11,227.56,326,190,347.72,20.8,250l37.59-21.7,164.12,27L117,194.48l37.59-21.7,169.17,97.68Z"/><path class="cls-144" d="M286.2,291,122.08,264l105.48,60.91L190,346.58,20.8,248.9l37.59-21.7,164.12,27.05L117,193.35l37.59-21.71,169.17,97.68Z"/><path class="cls-145" d="M286.2,289.88l-164.12-27,105.48,60.9L190,345.44,20.8,247.77l37.59-21.71,164.12,27.05L117,192.21l37.59-21.7,169.17,97.67Z"/><path class="cls-146" d="M286.2,288.74l-164.12-27,105.48,60.9L190,344.3,20.8,246.63l37.59-21.7,164.12,27L117,191.07l37.59-21.7L323.79,267Z"/><path class="cls-147" d="M286.2,287.61,122.08,260.56l105.48,60.9L190,343.16,20.8,245.49l37.59-21.7,164.12,27L117,189.93l37.59-21.7L323.79,265.9Z"/><path class="cls-148" d="M286.2,286.47,122.08,259.42l105.48,60.9L190,342,20.8,244.35l37.59-21.7,164.12,27L117,188.79l37.59-21.7,169.17,97.68Z"/><path class="cls-149" d="M286.2,285.33,122.08,258.28l105.48,60.91L190,340.89,20.8,243.21l37.59-21.7,164.12,27.05L117,187.66,154.62,166l169.17,97.68Z"/><path class="cls-150" d="M286.2,284.19l-164.12-27,105.48,60.9L190,339.75,20.8,242.08l37.59-21.71,164.12,27L117,186.52l37.59-21.7,169.17,97.67Z"/><path class="cls-151" d="M286.2,283.05,122.08,256l105.48,60.9L190,338.61,20.8,240.94l37.59-21.7,164.12,27L117,185.38l37.59-21.7,169.17,97.67Z"/><path class="cls-152" d="M286.2,281.92,122.08,254.87l105.48,60.9L190,337.48,20.8,239.8l37.59-21.7,164.12,27.05L117,184.24l37.59-21.7,169.17,97.67Z"/><path class="cls-153" d="M286.2,280.78l-164.12-27,105.48,60.91L190,336.34,20.8,238.66,58.39,217l164.12,27L117,183.1l37.59-21.7,169.17,97.68Z"/><path class="cls-154" d="M286.2,279.64l-164.12-27L227.56,313.5,190,335.2,20.8,237.53l37.59-21.71,164.12,27.05L117,182l37.59-21.71,169.17,97.68Z"/><path class="cls-155" d="M286.2,278.5l-164.12-27,105.48,60.9L190,334.06,20.8,236.39l37.59-21.7,164.12,27L117,180.83l37.59-21.7L323.79,256.8Z"/><path class="cls-156" d="M286.2,277.37,122.08,250.32l105.48,60.9L190,332.92,20.8,235.25l37.59-21.7,164.12,27L117,179.69,154.62,158l169.17,97.67Z"/><path class="cls-157" d="M286.2,276.23,122.08,249.18l105.48,60.9L190,331.79,20.8,234.11l37.59-21.7,164.12,27.05L117,178.55l37.59-21.7,169.17,97.68Z"/><path class="cls-158" d="M286.2,275.09,122.08,248,227.56,309,190,330.65,20.8,233l37.59-21.7,164.12,27L117,177.42l37.59-21.71,169.17,97.68Z"/><path class="cls-159" d="M286.2,274l-164.12-27,105.48,60.9L190,329.51,20.8,231.84l37.59-21.71,164.12,27.05L117,176.28l37.59-21.7,169.17,97.67Z"/><path class="cls-160" d="M286.2,272.81l-164.12-27,105.48,60.9L190,328.37,20.8,230.7,58.39,209l164.12,27L117,175.14l37.59-21.7,169.17,97.67Z"/><path class="cls-161" d="M286.2,271.68,122.08,244.63l105.48,60.9L190,327.24,20.8,229.56l37.59-21.7,164.12,27L117,174l37.59-21.7L323.79,250Z"/><path class="cls-162" d="M286.2,270.54,122.08,243.49l105.48,60.9L190,326.1,20.8,228.42l37.59-21.7,164.12,27.05L117,172.86l37.59-21.7,169.17,97.68Z"/><path class="cls-163" d="M286.2,269.4l-164.12-27,105.48,60.91L190,325,20.8,227.29l37.59-21.71,164.12,27L117,171.73,154.62,150,323.79,247.7Z"/><path class="cls-164" d="M286.2,268.26l-164.12-27,105.48,60.9L190,323.82,20.8,226.15l37.59-21.71,164.12,27.05L117,170.59l37.59-21.7,169.17,97.67Z"/><path class="cls-165" d="M286.2,267.13l-164.12-27L227.56,301,190,322.68,20.8,225l37.59-21.7,164.12,27L117,169.45l37.59-21.7,169.17,97.67Z"/><path class="cls-166" d="M286.2,266,122.08,238.94l105.48,60.9L190,321.55,20.8,223.87l37.59-21.7,164.12,27.05L117,168.31l37.59-21.7,169.17,97.67Z"/><path class="cls-167" d="M286.2,264.85,122.08,237.8l105.48,60.91L190,320.41,20.8,222.73,58.39,201l164.12,27.05L117,167.18l37.59-21.71,169.17,97.68Z"/><path class="cls-168" d="M286.2,263.71l-164.12-27,105.48,60.91L190,319.27,20.8,221.6l37.59-21.71,164.12,27.05L117,166l37.59-21.71L323.79,242Z"/><path class="cls-169" d="M286.2,262.57l-164.12-27,105.48,60.9L190,318.13,20.8,220.46l37.59-21.7,164.12,27L117,164.9l37.59-21.7,169.17,97.67Z"/><path class="cls-170" d="M286.2,261.44,122.08,234.39l105.48,60.9L190,317,20.8,219.32l37.59-21.7,164.12,27L117,163.76l37.59-21.7,169.17,97.67Z"/><path class="cls-171" d="M286.2,260.3,122.08,233.25l105.48,60.9L190,315.86,20.8,218.18l37.59-21.7,164.12,27.05L117,162.62l37.59-21.7L323.79,238.6Z"/><path class="cls-172" d="M286.2,259.16,122.08,232.11,227.56,293,190,314.72,20.8,217l37.59-21.7,164.12,27L117,161.49l37.59-21.71,169.17,97.68Z"/><path class="cls-173" d="M286.2,258,122.08,231l105.48,60.9L190,313.58,20.8,215.91,58.39,194.2l164.12,27.05L117,160.35l37.59-21.7,169.17,97.67Z"/><path class="cls-174" d="M286.2,256.88l-164.12-27,105.48,60.9L190,312.44,20.8,214.77l37.59-21.7,164.12,27L117,159.21l37.59-21.7,169.17,97.67Z"/><path class="cls-175" d="M286.2,255.75,122.08,228.7l105.48,60.9L190,311.31,20.8,213.63l37.59-21.7,164.12,27L117,158.07l37.59-21.7L323.79,234Z"/><path class="cls-176" d="M286.2,254.61,122.08,227.56l105.48,60.91L190,310.17,20.8,212.49l37.59-21.7,164.12,27.05L117,156.93l37.59-21.7,169.17,97.68Z"/><path class="cls-177" d="M286.2,253.47,122.08,226.42l105.48,60.91L190,309,20.8,211.36l37.59-21.71,164.12,27L117,155.8l37.59-21.71,169.17,97.68Z"/><path class="cls-178" d="M286.2,252.33l-164.12-27,105.48,60.9L190,307.89,20.8,210.22l37.59-21.71,164.12,27.05L117,154.66,154.62,133l169.17,97.67Z"/><path class="cls-178" d="M286.2,251.2l-164.12-27,105.48,60.9L190,306.75,20.8,209.08l37.59-21.7,164.12,27L117,153.52l37.59-21.7,169.17,97.67Z"/><path class="cls-179" d="M286.2,250.06,122.08,223l105.48,60.9L190,305.62,20.8,207.94l37.59-21.7,164.12,27L117,152.38l37.59-21.7,169.17,97.68Z"/><path class="cls-180" d="M286.2,248.92l-164.12-27,105.48,60.91L190,304.48,20.8,206.8l37.59-21.7,164.12,27.05L117,151.25l37.59-21.71,169.17,97.68Z"/><path class="cls-181" d="M286.2,247.78l-164.12-27,105.48,60.9L190,303.34,20.8,205.67,58.39,184l164.12,27L117,150.11l37.59-21.7,169.17,97.67Z"/><path class="cls-182" d="M286.2,246.64l-164.12-27,105.48,60.9L190,302.2,20.8,204.53l37.59-21.7,164.12,27L117,149l37.59-21.7,169.17,97.67Z"/><path class="cls-183" d="M286.2,245.51l-164.12-27,105.48,60.9L190,301.06,20.8,203.39l37.59-21.7,164.12,27L117,147.83l37.59-21.7L323.79,223.8Z"/><path class="cls-184" d="M286.2,244.37,122.08,217.32l105.48,60.9L190,299.93,20.8,202.25l37.59-21.7,164.12,27L117,146.69,154.62,125l169.17,97.68Z"/><path class="cls-185" d="M286.2,243.23l-164.12-27,105.48,60.91L190,298.79,20.8,201.11l37.59-21.7,164.12,27.05L117,145.56l37.59-21.71,169.17,97.68Z"/><path class="cls-186" d="M286.2,242.09l-164.12-27L227.56,276,190,297.65,20.8,200l37.59-21.71,164.12,27L117,144.42l37.59-21.7,169.17,97.67Z"/><path class="cls-187" d="M286.2,241l-164.12-27,105.48,60.9L190,296.51,20.8,198.84l37.59-21.7,164.12,27L117,143.28l37.59-21.7,169.17,97.67Z"/><path class="cls-188" d="M286.2,239.82l-164.12-27,105.48,60.9L190,295.38,20.8,197.7,58.39,176l164.12,27.05L117,142.14l37.59-21.7,169.17,97.67Z"/><path class="cls-189" d="M286.2,238.68,122.08,211.63l105.48,60.91L190,294.24,20.8,196.56l37.59-21.7,164.12,27L117,141l37.59-21.7L323.79,217Z"/><path class="cls-190" d="M286.2,237.54l-164.12-27L227.56,271.4,190,293.1,20.8,195.43l37.59-21.71,164.12,27.05L117,139.87l37.59-21.71,169.17,97.68Z"/><path class="cls-191" d="M286.2,236.4l-164.12-27,105.48,60.9L190,292,20.8,194.29l37.59-21.7,164.12,27L117,138.73,154.62,117,323.79,214.7Z"/><path class="cls-192" d="M286.2,235.27,122.08,208.22l105.48,60.9L190,290.82,20.8,193.15l37.59-21.7,164.12,27L117,137.59l37.59-21.7,169.17,97.67Z"/><path class="cls-193" d="M286.2,234.13l-164.12-27L227.56,268,190,289.69,20.8,192l37.59-21.7,164.12,27.05L117,136.45l37.59-21.7,169.17,97.68Z"/><path class="cls-194" d="M286.2,233,122.08,205.94l105.48,60.91L190,288.55,20.8,190.87l37.59-21.7,164.12,27.05L117,135.32l37.59-21.71,169.17,97.68Z"/><path class="cls-195" d="M286.2,231.85l-164.12-27,105.48,60.9L190,287.41,20.8,189.74,58.39,168l164.12,27.05L117,134.18l37.59-21.7,169.17,97.67Z"/><path class="cls-196" d="M286.2,230.71l-164.12-27,105.48,60.9L190,286.27,20.8,188.6l37.59-21.7,164.12,27L117,133l37.59-21.7L323.79,209Z"/><path class="cls-197" d="M286.2,229.58,122.08,202.53l105.48,60.9L190,285.13,20.8,187.46l37.59-21.7,164.12,27L117,131.9l37.59-21.7,169.17,97.67Z"/><path class="cls-198" d="M286.2,228.44,122.08,201.39l105.48,60.9L190,284,20.8,186.32l37.59-21.7,164.12,27L117,130.76l37.59-21.7,169.17,97.68Z"/><path class="cls-199" d="M286.2,227.3,122.08,200.25l105.48,60.91L190,282.86,20.8,185.18l37.59-21.7,164.12,27.05L117,129.63l37.59-21.71L323.79,205.6Z"/><path class="cls-200" d="M286.2,226.16l-164.12-27L227.56,260,190,281.72,20.8,184.05l37.59-21.71,164.12,27L117,128.49l37.59-21.7,169.17,97.67Z"/><path class="cls-201" d="M286.2,225,122.08,198l105.48,60.9L190,280.58,20.8,182.91l37.59-21.7,164.12,27L117,127.35l37.59-21.7,169.17,97.67Z"/><path class="cls-202" d="M286.2,223.89l-164.12-27,105.48,60.9L190,279.45,20.8,181.77l37.59-21.7,164.12,27.05L117,126.21l37.59-21.7,169.17,97.67Z"/><path class="cls-203" d="M286.2,222.75,122.08,195.7l105.48,60.91L190,278.31,20.8,180.63l37.59-21.7,164.12,27L117,125.07l37.59-21.7,169.17,97.68Z"/><path class="cls-204" d="M286.2,221.61,122.08,194.56l105.48,60.91L190,277.17,20.8,179.5l37.59-21.71,164.12,27.05L117,123.94l37.59-21.71,169.17,97.68Z"/><path class="cls-205" d="M286.2,220.47l-164.12-27,105.48,60.9L190,276,20.8,178.36l37.59-21.7,164.12,27L117,122.8l37.59-21.7,169.17,97.67Z"/><path class="cls-206" d="M286.2,219.34,122.08,192.29l105.48,60.9L190,274.89,20.8,177.22l37.59-21.7,164.12,27L117,121.66,154.62,100l169.17,97.67Z"/><path class="cls-207" d="M286.2,218.2l-164.12-27,105.48,60.9L190,273.76,20.8,176.08l37.59-21.7,164.12,27.05L117,120.52l37.59-21.7L323.79,196.5Z"/><path class="cls-208" d="M286.2,217.06,122.08,190l105.48,60.91L190,272.62,20.8,174.94l37.59-21.7,164.12,27L117,119.39l37.59-21.71,169.17,97.68Z"/><path class="cls-209" d="M286.2,215.92l-164.12-27,105.48,60.9L190,271.48,20.8,173.81,58.39,152.1l164.12,27.05L117,118.25l37.59-21.7,169.17,97.67Z"/><path class="cls-210" d="M286.2,214.78l-164.12-27,105.48,60.9L190,270.34,20.8,172.67,58.39,151l164.12,27L117,117.11l37.59-21.7,169.17,97.67Z"/><path class="cls-210" d="M286.2,213.65,122.08,186.6l105.48,60.9L190,269.21,20.8,171.53l37.59-21.7,164.12,27L117,116l37.59-21.7,169.17,97.67Z"/><path class="cls-211" d="M286.2,212.51l-164.12-27,105.48,60.9L190,268.07,20.8,170.39l37.59-21.7,164.12,27.05L117,114.83l37.59-21.7,169.17,97.68Z"/><path class="cls-212" d="M286.2,211.37,122.08,184.32l105.48,60.91L190,266.93,20.8,169.26l37.59-21.71,164.12,27L117,113.7,154.62,92l169.17,97.68Z"/><path class="cls-213" d="M286.2,210.23l-164.12-27,105.48,60.9L190,265.79,20.8,168.12l37.59-21.71,164.12,27.05L117,112.56l37.59-21.7,169.17,97.67Z"/><path class="cls-214" d="M286.2,209.1l-164.12-27L227.56,243,190,264.65,20.8,167l37.59-21.7,164.12,27L117,111.42l37.59-21.7,169.17,97.67Z"/><path class="cls-214" d="M286.2,208,122.08,180.91l105.48,60.9L190,263.52,20.8,165.84l37.59-21.7,164.12,27.05L117,110.28l37.59-21.7,169.17,97.68Z"/><path class="cls-215" d="M286.2,206.82l-164.12-27,105.48,60.91L190,262.38,20.8,164.7,58.39,143l164.12,27.05L117,109.15l37.59-21.71,169.17,97.68Z"/><path class="cls-216" d="M286.2,205.68,122.08,178.63l105.48,60.91L190,261.24,20.8,163.57l37.59-21.71,164.12,27L117,108,154.62,86.3,323.79,184Z"/><path class="cls-217" d="M286.2,204.54l-164.12-27,105.48,60.9L190,260.1,20.8,162.43l37.59-21.7,164.12,27L117,106.87l37.59-21.7,169.17,97.67Z"/><path class="cls-218" d="M286.2,203.41l-164.12-27,105.48,60.9L190,259,20.8,161.29l37.59-21.7,164.12,27L117,105.73,154.62,84,323.79,181.7Z"/><path class="cls-218" d="M286.2,202.27,122.08,175.22l105.48,60.9L190,257.83,20.8,160.15l37.59-21.7L222.51,165.5,117,104.59l37.59-21.7,169.17,97.68Z"/><path class="cls-219" d="M286.2,201.13l-164.12-27L227.56,235,190,256.69,20.8,159l37.59-21.7,164.12,27.05L117,103.46l37.59-21.71,169.17,97.68Z"/><path class="cls-220" d="M286.2,200,122.08,173l105.48,60.9L190,255.55,20.8,157.88l37.59-21.71,164.12,27.05L117,102.32l37.59-21.7,169.17,97.67Z"/><path class="cls-221" d="M286.2,198.85l-164.12-27,105.48,60.9L190,254.41,20.8,156.74,58.39,135l164.12,27L117,101.18l37.59-21.7,169.17,97.67Z"/><path class="cls-222" d="M286.2,197.72,122.08,170.67l105.48,60.9L190,253.28,20.8,155.6l37.59-21.7,164.12,27L117,100l37.59-21.7L323.79,176Z"/><path class="cls-223" d="M286.2,196.58,122.08,169.53l105.48,60.91L190,252.14,20.8,154.46l37.59-21.7,164.12,27.05L117,98.9l37.59-21.7,169.17,97.68Z"/><path class="cls-224" d="M286.2,195.44,122.08,168.39,227.56,229.3,190,251,20.8,153.33l37.59-21.71,164.12,27L117,97.77l37.59-21.71,169.17,97.68Z"/><path class="cls-225" d="M286.2,194.3l-164.12-27,105.48,60.9L190,249.86,20.8,152.19l37.59-21.71,164.12,27.05L117,96.63l37.59-21.7L323.79,172.6Z"/><path class="cls-226" d="M286.2,193.17l-164.12-27L227.56,227,190,248.72,20.8,151.05l37.59-21.7,164.12,27L117,95.49l37.59-21.7,169.17,97.67Z"/><path class="cls-227" d="M286.2,192,122.08,165l105.48,60.9L190,247.59,20.8,149.91l37.59-21.7,164.12,27L117,94.35l37.59-21.7,169.17,97.68Z"/><path class="cls-228" d="M286.2,190.89l-164.12-27,105.48,60.91L190,246.45,20.8,148.77l37.59-21.7,164.12,27.05L117,93.22l37.59-21.71,169.17,97.68Z"/><path class="cls-229" d="M286.2,189.75l-164.12-27,105.48,60.9L190,245.31,20.8,147.64l37.59-21.71,164.12,27L117,92.08l37.59-21.71,169.17,97.68Z"/><path class="cls-230" d="M286.2,188.61l-164.12-27,105.48,60.9L190,244.17,20.8,146.5l37.59-21.7,164.12,27L117,90.94l37.59-21.7,169.17,97.67Z"/><path class="cls-231" d="M286.2,187.48l-164.12-27,105.48,60.9L190,243,20.8,145.36l37.59-21.7,164.12,27L117,89.8l37.59-21.7,169.17,97.67Z"/><path class="cls-232" d="M286.2,186.34,122.08,159.29l105.48,60.9L190,241.9,20.8,144.22l37.59-21.7,164.12,27.05L117,88.66,154.62,67l169.17,97.68Z"/><path class="cls-233" d="M286.2,185.2l-164.12-27,105.48,60.91L190,240.76,20.8,143.08l37.59-21.7,164.12,27.05L117,87.53l37.59-21.71L323.79,163.5Z"/><path class="cls-234" d="M286.2,184.06,122.08,157l105.48,60.9L190,239.62,20.8,142l37.59-21.71,164.12,27.05L117,86.39l37.59-21.7,169.17,97.67Z"/><path class="cls-235" d="M286.2,182.92l-164.12-27,105.48,60.9L190,238.48,20.8,140.81l37.59-21.7,164.12,27L117,85.25l37.59-21.7,169.17,97.67Z"/><path class="cls-236" d="M286.2,181.79l-164.12-27,105.48,60.9L190,237.35,20.8,139.67,58.39,118,222.51,145,117,84.11l37.59-21.7,169.17,97.67Z"/><path class="cls-237" d="M286.2,180.65,122.08,153.6l105.48,60.91L190,236.21,20.8,138.53l37.59-21.7,164.12,27.05L117,83l37.59-21.7L323.79,159Z"/><path class="cls-238" d="M286.2,179.51l-164.12-27,105.48,60.91L190,235.07,20.8,137.4l37.59-21.71,164.12,27.05L117,81.84l37.59-21.71,169.17,97.68Z"/><path class="cls-239" d="M286.2,178.37l-164.12-27,105.48,60.9L190,233.93,20.8,136.26l37.59-21.7,164.12,27L117,80.7,154.62,59l169.17,97.67Z"/><path class="cls-240" d="M286.2,177.24,122.08,150.19l105.48,60.9L190,232.79,20.8,135.12l37.59-21.7,164.12,27L117,79.56l37.59-21.7,169.17,97.67Z"/><path class="cls-241" d="M286.2,176.1l-164.12-27L227.56,210,190,231.66,20.8,134l37.59-21.7,164.12,27.05L117,78.42l37.59-21.7L323.79,154.4Z"/><path class="cls-242" d="M286.2,175,122.08,147.91l105.48,60.91L190,230.52,20.8,132.84l37.59-21.7,164.12,27.05L117,77.29l37.59-21.71,169.17,97.68Z"/><path class="cls-243" d="M286.2,173.82l-164.12-27,105.48,60.9L190,229.38,20.8,131.71,58.39,110l164.12,27.05L117,76.15l37.59-21.7,169.17,97.67Z"/><path class="cls-244" d="M286.2,172.68l-164.12-27,105.48,60.9L190,228.24,20.8,130.57l37.59-21.7,164.12,27L117,75l37.59-21.7L323.79,151Z"/><path class="cls-245" d="M286.2,171.55,122.08,144.5l105.48,60.9L190,227.1,20.8,129.43l37.59-21.7,164.12,27L117,73.87l37.59-21.7,169.17,97.67Z"/><path class="cls-245" d="M286.2,170.41l-164.12-27,105.48,60.9L190,226,20.8,128.29l37.59-21.7,164.12,27L117,72.73,154.62,51l169.17,97.68Z"/><path class="cls-246" d="M286.2,169.27,122.08,142.22l105.48,60.91L190,224.83,20.8,127.15l37.59-21.7L222.51,132.5,117,71.6l37.59-21.71,169.17,97.68Z"/><path class="cls-247" d="M286.2,168.13l-164.12-27L227.56,202,190,223.69,20.8,126l37.59-21.71,164.12,27.05L117,70.46l37.59-21.7,169.17,97.67Z"/><path class="cls-247" d="M286.2,167,122.08,140l105.48,60.9L190,222.55,20.8,124.88l37.59-21.7,164.12,27L117,69.32l37.59-21.7,169.17,97.67Z"/><path class="cls-248" d="M286.2,165.86,122.08,138.81l105.48,60.9L190,221.42,20.8,123.74,58.39,102l164.12,27.05L117,68.18l37.59-21.7,169.17,97.67Z"/><path class="cls-248" d="M286.2,164.72,122.08,137.67l105.48,60.91L190,220.28,20.8,122.6l37.59-21.7L222.51,128,117,67l37.59-21.7L323.79,143Z"/><path class="cls-249" d="M286.2,163.58,122.08,136.53l105.48,60.91L190,219.14,20.8,121.47,58.39,99.76l164.12,27.05L117,65.91,154.62,44.2l169.17,97.68Z"/><path class="cls-250" d="M286.2,162.44l-164.12-27,105.48,60.9L190,218,20.8,120.33l37.59-21.7,164.12,27L117,64.77l37.59-21.7,169.17,97.67Z"/><path class="cls-250" d="M286.2,161.31,122.08,134.26l105.48,60.9L190,216.86,20.8,119.19l37.59-21.7,164.12,27L117,63.63l37.59-21.7L323.79,139.6Z"/><path class="cls-251" d="M286.2,160.17l-164.12-27L227.56,194,190,215.73,20.8,118.05l37.59-21.7L222.51,123.4,117,62.49l37.59-21.7,169.17,97.68Z"/><path class="cls-251" d="M286.2,159,122.08,132l105.48,60.91L190,214.59,20.8,116.91l37.59-21.7,164.12,27.05L117,61.36l37.59-21.71,169.17,97.68Z"/><path class="cls-252" d="M286.2,157.89l-164.12-27,105.48,60.9L190,213.45,20.8,115.78,58.39,94.07l164.12,27.05L117,60.22l37.59-21.7,169.17,97.67Z"/><path class="cls-253" d="M286.2,156.75l-164.12-27,105.48,60.9L190,212.31,20.8,114.64l37.59-21.7,164.12,27L117,59.08l37.59-21.7,169.17,97.67Z"/><path class="cls-254" d="M286.2,155.62,122.08,128.57l105.48,60.9L190,211.18,20.8,113.5,58.39,91.8l164.12,27.05L117,57.94l37.59-21.7,169.17,97.67Z"/><path class="cls-255" d="M286.2,154.48l-164.12-27,105.48,60.91L190,210,20.8,112.36l37.59-21.7,164.12,27.05L117,56.8l37.59-21.7,169.17,97.68Z"/><path class="cls-255" d="M286.2,153.34l-164.12-27L227.56,187.2,190,208.9,20.8,111.23,58.39,89.52l164.12,27.05L117,55.67,154.62,34l169.17,97.68Z"/><path class="cls-256" d="M286.2,152.2l-164.12-27,105.48,60.9L190,207.76,20.8,110.09,58.39,88.38l164.12,27.05L117,54.53l37.59-21.7L323.79,130.5Z"/><path class="cls-257" d="M286.2,151.07,122.08,124l105.48,60.9L190,206.62,20.8,109l37.59-21.7,164.12,27L117,53.39l37.59-21.7,169.17,97.67Z"/><path class="cls-258" d="M286.2,149.93,122.08,122.88l105.48,60.9L190,205.49,20.8,107.81l37.59-21.7,164.12,27.05L117,52.25l37.59-21.7,169.17,97.68Z"/><path class="cls-259" d="M286.2,148.79l-164.12-27,105.48,60.91L190,204.35,20.8,106.67,58.39,85,222.51,112,117,51.12l37.59-21.71,169.17,97.68Z"/><path class="cls-260" d="M286.2,147.65,122.08,120.6l105.48,60.91L190,203.21,20.8,105.54,58.39,83.83l164.12,27.05L117,50l37.59-21.71L323.79,126Z"/><path class="cls-261" d="M286.2,146.51l-164.12-27,105.48,60.9L190,202.07,20.8,104.4,58.39,82.7l164.12,27L117,48.84l37.59-21.7,169.17,97.67Z"/><path class="cls-262" d="M286.2,145.38l-164.12-27,105.48,60.9L190,200.93,20.8,103.26l37.59-21.7,164.12,27L117,47.7,154.62,26l169.17,97.67Z"/><path class="cls-263" d="M286.2,144.24,122.08,117.19l105.48,60.9L190,199.8,20.8,102.12l37.59-21.7,164.12,27.05L117,46.56l37.59-21.7,169.17,97.68Z"/><path class="cls-264" d="M286.2,143.1l-164.12-27L227.56,177,190,198.66,20.8,101l37.59-21.7,164.12,27.05L117,45.43l37.59-21.71L323.79,121.4Z"/><path class="cls-265" d="M286.2,142l-164.12-27,105.48,60.9L190,197.52,20.8,99.85,58.39,78.14l164.12,27.05L117,44.29l37.59-21.7,169.17,97.67Z"/><path class="cls-266" d="M286.2,140.82l-164.12-27,105.48,60.9L190,196.38,20.8,98.71,58.39,77l164.12,27L117,43.15l37.59-21.7,169.17,97.67Z"/><path class="cls-267" d="M286.2,139.69l-164.12-27,105.48,60.9L190,195.25,20.8,97.57l37.59-21.7,164.12,27.05L117,42l37.59-21.7L323.79,118Z"/><path class="cls-268" d="M286.2,138.55,122.08,111.5l105.48,60.91L190,194.11,20.8,96.43l37.59-21.7,164.12,27.05L117,40.87l37.59-21.7,169.17,97.68Z"/><path class="cls-269" d="M286.2,137.41l-164.12-27,105.48,60.91L190,193,20.8,95.3,58.39,73.59l164.12,27.05L117,39.74,154.62,18l169.17,97.68Z"/><path class="cls-270" d="M286.2,136.27l-164.12-27,105.48,60.9L190,191.83,20.8,94.16,58.39,72.45,222.51,99.5,117,38.6l37.59-21.7,169.17,97.67Z"/><path class="cls-270" d="M286.2,135.14l-164.12-27L227.56,169,190,190.69,20.8,93l37.59-21.7,164.12,27L117,37.46l37.59-21.7,169.17,97.67Z"/><path class="cls-271" d="M286.2,134,122.08,107l105.48,60.9L190,189.56,20.8,91.88l37.59-21.7L222.51,97.23,117,36.32l37.59-21.7L323.79,112.3Z"/><path class="cls-272" d="M286.2,132.86,122.08,105.81l105.48,60.91L190,188.42,20.8,90.74,58.39,69,222.51,96.09,117,35.19l37.59-21.71,169.17,97.68Z"/><path class="cls-273" d="M286.2,131.72l-164.12-27,105.48,60.91L190,187.28,20.8,89.61,58.39,67.9,222.51,95,117,34.05l37.59-21.71L323.79,110Z"/><path class="cls-274" d="M286.2,130.58l-164.12-27,105.48,60.9L190,186.14,20.8,88.47l37.59-21.7,164.12,27L117,32.91l37.59-21.7,169.17,97.67Z"/><path class="cls-274" d="M286.2,129.45l-164.12-27,105.48,60.9L190,185,20.8,87.33l37.59-21.7,164.12,27L117,31.77l37.59-21.7,169.17,97.67Z"/><path class="cls-275" d="M286.2,128.31l-164.12-27,105.48,60.9L190,183.87,20.8,86.19l37.59-21.7L222.51,91.54,117,30.63l37.59-21.7,169.17,97.68Z"/><path class="cls-275" d="M286.2,127.17l-164.12-27L227.56,161,190,182.73,20.8,85.05l37.59-21.7L222.51,90.4,117,29.5,154.62,7.79l169.17,97.68Z"/><text class="cls-276" transform="matrix(0.87, -0.5, 0.87, 0.5, 174.94, 190.27)">N</text><path class="cls-277" d="M286.2,126,122.08,99l105.48,60.9L190,181.59,20.8,83.92,58.39,62.21,222.51,89.26,117,28.36l37.59-21.7,169.17,97.67Z"/><path class="cls-277" d="M286.2,126,122.08,99l105.48,60.9L190,181.59,20.8,83.92,58.39,62.21,222.51,89.26,117,28.36l37.59-21.7,169.17,97.67Z"/><path class="cls-277" d="M286.2,126,122.08,99l105.48,60.9L190,181.59,20.8,83.92,58.39,62.21,222.51,89.26,117,28.36l37.59-21.7,169.17,97.67Z"/><path class="cls-277" d="M286.2,126,122.08,99l105.48,60.9L190,181.59,20.8,83.92,58.39,62.21,222.51,89.26,117,28.36l37.59-21.7,169.17,97.67Z"/><path class="cls-277" d="M286.2,126,122.08,99l105.48,60.9L190,181.59,20.8,83.92,58.39,62.21,222.51,89.26,117,28.36l37.59-21.7,169.17,97.67Z"/><path class="cls-277" d="M286.2,126,122.08,99l105.48,60.9L190,181.59,20.8,83.92,58.39,62.21,222.51,89.26,117,28.36l37.59-21.7,169.17,97.67Z"/><path class="cls-278" d="M286.2,126,122.08,99l105.48,60.9L190,181.59,20.8,83.92,58.39,62.21,222.51,89.26,117,28.36l37.59-21.7,169.17,97.67Z"/><path class="cls-278" d="M286.2,126,122.08,99l105.48,60.9L190,181.59,20.8,83.92,58.39,62.21,222.51,89.26,117,28.36l37.59-21.7,169.17,97.67Z"/><path class="cls-279" d="M286.2,126,122.08,99l105.48,60.9L190,181.59,20.8,83.92,58.39,62.21,222.51,89.26,117,28.36l37.59-21.7,169.17,97.67Z"/><path class="cls-279" d="M286.2,126,122.08,99l105.48,60.9L190,181.59,20.8,83.92,58.39,62.21,222.51,89.26,117,28.36l37.59-21.7,169.17,97.67Z"/><path class="cls-279" d="M286.2,126,122.08,99l105.48,60.9L190,181.59,20.8,83.92,58.39,62.21,222.51,89.26,117,28.36l37.59-21.7,169.17,97.67Z"/><path class="cls-279" d="M286.2,126,122.08,99l105.48,60.9L190,181.59,20.8,83.92,58.39,62.21,222.51,89.26,117,28.36l37.59-21.7,169.17,97.67Z"/><path class="cls-279" d="M286.2,126,122.08,99l105.48,60.9L190,181.59,20.8,83.92,58.39,62.21,222.51,89.26,117,28.36l37.59-21.7,169.17,97.67Z"/><path class="cls-280" d="M286.2,126,122.08,99l105.48,60.9L190,181.59,20.8,83.92,58.39,62.21,222.51,89.26,117,28.36l37.59-21.7,169.17,97.67Z"/><path class="cls-280" d="M286.2,126,122.08,99l105.48,60.9L190,181.59,20.8,83.92,58.39,62.21,222.51,89.26,117,28.36l37.59-21.7,169.17,97.67Z"/><path class="cls-280" d="M286.2,126,122.08,99l105.48,60.9L190,181.59,20.8,83.92,58.39,62.21,222.51,89.26,117,28.36l37.59-21.7,169.17,97.67Z"/><path class="cls-280" d="M286.2,126,122.08,99l105.48,60.9L190,181.59,20.8,83.92,58.39,62.21,222.51,89.26,117,28.36l37.59-21.7,169.17,97.67Z"/><path class="cls-280" d="M286.2,126,122.08,99l105.48,60.9L190,181.59,20.8,83.92,58.39,62.21,222.51,89.26,117,28.36l37.59-21.7,169.17,97.67Z"/><path class="cls-280" d="M286.2,126,122.08,99l105.48,60.9L190,181.59,20.8,83.92,58.39,62.21,222.51,89.26,117,28.36l37.59-21.7,169.17,97.67Z"/><path class="cls-280" d="M286.2,126,122.08,99l105.48,60.9L190,181.59,20.8,83.92,58.39,62.21,222.51,89.26,117,28.36l37.59-21.7,169.17,97.67Z"/><path class="cls-281" d="M286.2,126,122.08,99l105.48,60.9L190,181.59,20.8,83.92,58.39,62.21,222.51,89.26,117,28.36l37.59-21.7,169.17,97.67Z"/><path class="cls-281" d="M286.2,126,122.08,99l105.48,60.9L190,181.59,20.8,83.92,58.39,62.21,222.51,89.26,117,28.36l37.59-21.7,169.17,97.67Z"/><path class="cls-281" d="M286.2,126,122.08,99l105.48,60.9L190,181.59,20.8,83.92,58.39,62.21,222.51,89.26,117,28.36l37.59-21.7,169.17,97.67Z"/><path class="cls-281" d="M286.2,126,122.08,99l105.48,60.9L190,181.59,20.8,83.92,58.39,62.21,222.51,89.26,117,28.36l37.59-21.7,169.17,97.67Z"/><path class="cls-281" d="M286.2,126,122.08,99l105.48,60.9L190,181.59,20.8,83.92,58.39,62.21,222.51,89.26,117,28.36l37.59-21.7,169.17,97.67Z"/><path class="cls-282" d="M286.2,126,122.08,99l105.48,60.9L190,181.59,20.8,83.92,58.39,62.21,222.51,89.26,117,28.36l37.59-21.7,169.17,97.67Z"/><path class="cls-282" d="M286.2,126,122.08,99l105.48,60.9L190,181.59,20.8,83.92,58.39,62.21,222.51,89.26,117,28.36l37.59-21.7,169.17,97.67Z"/><path class="cls-282" d="M286.2,126,122.08,99l105.48,60.9L190,181.59,20.8,83.92,58.39,62.21,222.51,89.26,117,28.36l37.59-21.7,169.17,97.67Z"/><path class="cls-282" d="M286.2,126,122.08,99l105.48,60.9L190,181.59,20.8,83.92,58.39,62.21,222.51,89.26,117,28.36l37.59-21.7,169.17,97.67Z"/><path class="cls-282" d="M286.2,126,122.08,99l105.48,60.9L190,181.59,20.8,83.92,58.39,62.21,222.51,89.26,117,28.36l37.59-21.7,169.17,97.67Z"/><path class="cls-282" d="M286.2,126,122.08,99l105.48,60.9L190,181.59,20.8,83.92,58.39,62.21,222.51,89.26,117,28.36l37.59-21.7,169.17,97.67Z"/><path class="cls-282" d="M286.2,126,122.08,99l105.48,60.9L190,181.59,20.8,83.92,58.39,62.21,222.51,89.26,117,28.36l37.59-21.7,169.17,97.67Z"/><path class="cls-282" d="M286.2,126,122.08,99l105.48,60.9L190,181.59,20.8,83.92,58.39,62.21,222.51,89.26,117,28.36l37.59-21.7,169.17,97.67Z"/><path class="cls-282" d="M286.2,126,122.08,99l105.48,60.9L190,181.59,20.8,83.92,58.39,62.21,222.51,89.26,117,28.36l37.59-21.7,169.17,97.67Z"/><path class="cls-283" d="M286.2,126,122.08,99l105.48,60.9L190,181.59,20.8,83.92,58.39,62.21,222.51,89.26,117,28.36l37.59-21.7,169.17,97.67Z"/><path class="cls-283" d="M286.2,126,122.08,99l105.48,60.9L190,181.59,20.8,83.92,58.39,62.21,222.51,89.26,117,28.36l37.59-21.7,169.17,97.67Z"/><path class="cls-283" d="M286.2,126,122.08,99l105.48,60.9L190,181.59,20.8,83.92,58.39,62.21,222.51,89.26,117,28.36l37.59-21.7,169.17,97.67Z"/><path class="cls-283" d="M286.2,126,122.08,99l105.48,60.9L190,181.59,20.8,83.92,58.39,62.21,222.51,89.26,117,28.36l37.59-21.7,169.17,97.67Z"/><path class="cls-283" d="M286.2,126,122.08,99l105.48,60.9L190,181.59,20.8,83.92,58.39,62.21,222.51,89.26,117,28.36l37.59-21.7,169.17,97.67Z"/><path class="cls-283" d="M286.2,126,122.08,99l105.48,60.9L190,181.59,20.8,83.92,58.39,62.21,222.51,89.26,117,28.36l37.59-21.7,169.17,97.67Z"/><path class="cls-283" d="M286.2,126,122.08,99l105.48,60.9L190,181.59,20.8,83.92,58.39,62.21,222.51,89.26,117,28.36l37.59-21.7,169.17,97.67Z"/><path class="cls-284" d="M286.2,126,122.08,99l105.48,60.9L190,181.59,20.8,83.92,58.39,62.21,222.51,89.26,117,28.36l37.59-21.7,169.17,97.67Z"/><path class="cls-284" d="M286.2,126,122.08,99l105.48,60.9L190,181.59,20.8,83.92,58.39,62.21,222.51,89.26,117,28.36l37.59-21.7,169.17,97.67Z"/><path class="cls-284" d="M286.2,126,122.08,99l105.48,60.9L190,181.59,20.8,83.92,58.39,62.21,222.51,89.26,117,28.36l37.59-21.7,169.17,97.67Z"/><path class="cls-284" d="M286.2,126,122.08,99l105.48,60.9L190,181.59,20.8,83.92,58.39,62.21,222.51,89.26,117,28.36l37.59-21.7,169.17,97.67Z"/><path class="cls-284" d="M286.2,126,122.08,99l105.48,60.9L190,181.59,20.8,83.92,58.39,62.21,222.51,89.26,117,28.36l37.59-21.7,169.17,97.67Z"/><path class="cls-284" d="M286.2,126,122.08,99l105.48,60.9L190,181.59,20.8,83.92,58.39,62.21,222.51,89.26,117,28.36l37.59-21.7,169.17,97.67Z"/><path class="cls-285" d="M286.2,126,122.08,99l105.48,60.9L190,181.59,20.8,83.92,58.39,62.21,222.51,89.26,117,28.36l37.59-21.7,169.17,97.67Z"/><path class="cls-285" d="M286.2,126,122.08,99l105.48,60.9L190,181.59,20.8,83.92,58.39,62.21,222.51,89.26,117,28.36l37.59-21.7,169.17,97.67Z"/><path class="cls-285" d="M286.2,126,122.08,99l105.48,60.9L190,181.59,20.8,83.92,58.39,62.21,222.51,89.26,117,28.36l37.59-21.7,169.17,97.67Z"/><path class="cls-285" d="M286.2,126,122.08,99l105.48,60.9L190,181.59,20.8,83.92,58.39,62.21,222.51,89.26,117,28.36l37.59-21.7,169.17,97.67Z"/><path class="cls-285" d="M286.2,126,122.08,99l105.48,60.9L190,181.59,20.8,83.92,58.39,62.21,222.51,89.26,117,28.36l37.59-21.7,169.17,97.67Z"/><path class="cls-285" d="M286.2,126,122.08,99l105.48,60.9L190,181.59,20.8,83.92,58.39,62.21,222.51,89.26,117,28.36l37.59-21.7,169.17,97.67Z"/><path class="cls-285" d="M286.2,126,122.08,99l105.48,60.9L190,181.59,20.8,83.92,58.39,62.21,222.51,89.26,117,28.36l37.59-21.7,169.17,97.67Z"/><path class="cls-285" d="M286.2,126,122.08,99l105.48,60.9L190,181.59,20.8,83.92,58.39,62.21,222.51,89.26,117,28.36l37.59-21.7,169.17,97.67Z"/><path class="cls-285" d="M286.2,126,122.08,99l105.48,60.9L190,181.59,20.8,83.92,58.39,62.21,222.51,89.26,117,28.36l37.59-21.7,169.17,97.67Z"/><path class="cls-285" d="M286.2,126,122.08,99l105.48,60.9L190,181.59,20.8,83.92,58.39,62.21,222.51,89.26,117,28.36l37.59-21.7,169.17,97.67Z"/><path class="cls-285" d="M286.2,126,122.08,99l105.48,60.9L190,181.59,20.8,83.92,58.39,62.21,222.51,89.26,117,28.36l37.59-21.7,169.17,97.67Z"/><path class="cls-286" d="M286.2,126,122.08,99l105.48,60.9L190,181.59,20.8,83.92,58.39,62.21,222.51,89.26,117,28.36l37.59-21.7,169.17,97.67Z"/><path class="cls-286" d="M286.2,126,122.08,99l105.48,60.9L190,181.59,20.8,83.92,58.39,62.21,222.51,89.26,117,28.36l37.59-21.7,169.17,97.67Z"/><path class="cls-286" d="M286.2,126,122.08,99l105.48,60.9L190,181.59,20.8,83.92,58.39,62.21,222.51,89.26,117,28.36l37.59-21.7,169.17,97.67Z"/><path class="cls-287" d="M286.2,126,122.08,99l105.48,60.9L190,181.59,20.8,83.92,58.39,62.21,222.51,89.26,117,28.36l37.59-21.7,169.17,97.67Z"/><path class="cls-287" d="M286.2,126,122.08,99l105.48,60.9L190,181.59,20.8,83.92,58.39,62.21,222.51,89.26,117,28.36l37.59-21.7,169.17,97.67Z"/><path class="cls-287" d="M286.2,126,122.08,99l105.48,60.9L190,181.59,20.8,83.92,58.39,62.21,222.51,89.26,117,28.36l37.59-21.7,169.17,97.67Z"/><path class="cls-287" d="M286.2,126,122.08,99l105.48,60.9L190,181.59,20.8,83.92,58.39,62.21,222.51,89.26,117,28.36l37.59-21.7,169.17,97.67Z"/><path class="cls-287" d="M286.2,126,122.08,99l105.48,60.9L190,181.59,20.8,83.92,58.39,62.21,222.51,89.26,117,28.36l37.59-21.7,169.17,97.67Z"/><path class="cls-287" d="M286.2,126,122.08,99l105.48,60.9L190,181.59,20.8,83.92,58.39,62.21,222.51,89.26,117,28.36l37.59-21.7,169.17,97.67Z"/><path class="cls-287" d="M286.2,126,122.08,99l105.48,60.9L190,181.59,20.8,83.92,58.39,62.21,222.51,89.26,117,28.36l37.59-21.7,169.17,97.67Z"/><path class="cls-288" d="M286.2,126,122.08,99l105.48,60.9L190,181.59,20.8,83.92,58.39,62.21,222.51,89.26,117,28.36l37.59-21.7,169.17,97.67Z"/><path class="cls-288" d="M286.2,126,122.08,99l105.48,60.9L190,181.59,20.8,83.92,58.39,62.21,222.51,89.26,117,28.36l37.59-21.7,169.17,97.67Z"/><path class="cls-288" d="M286.2,126,122.08,99l105.48,60.9L190,181.59,20.8,83.92,58.39,62.21,222.51,89.26,117,28.36l37.59-21.7,169.17,97.67Z"/><path class="cls-288" d="M286.2,126,122.08,99l105.48,60.9L190,181.59,20.8,83.92,58.39,62.21,222.51,89.26,117,28.36l37.59-21.7,169.17,97.67Z"/><path class="cls-288" d="M286.2,126,122.08,99l105.48,60.9L190,181.59,20.8,83.92,58.39,62.21,222.51,89.26,117,28.36l37.59-21.7,169.17,97.67Z"/><path class="cls-288" d="M286.2,126,122.08,99l105.48,60.9L190,181.59,20.8,83.92,58.39,62.21,222.51,89.26,117,28.36l37.59-21.7,169.17,97.67Z"/><path class="cls-288" d="M286.2,126,122.08,99l105.48,60.9L190,181.59,20.8,83.92,58.39,62.21,222.51,89.26,117,28.36l37.59-21.7,169.17,97.67Z"/><path class="cls-289" d="M286.2,126,122.08,99l105.48,60.9L190,181.59,20.8,83.92,58.39,62.21,222.51,89.26,117,28.36l37.59-21.7,169.17,97.67Z"/><path class="cls-289" d="M286.2,126,122.08,99l105.48,60.9L190,181.59,20.8,83.92,58.39,62.21,222.51,89.26,117,28.36l37.59-21.7,169.17,97.67Z"/><path class="cls-289" d="M286.2,126,122.08,99l105.48,60.9L190,181.59,20.8,83.92,58.39,62.21,222.51,89.26,117,28.36l37.59-21.7,169.17,97.67Z"/><path class="cls-289" d="M286.2,126,122.08,99l105.48,60.9L190,181.59,20.8,83.92,58.39,62.21,222.51,89.26,117,28.36l37.59-21.7,169.17,97.67Z"/><path class="cls-289" d="M286.2,126,122.08,99l105.48,60.9L190,181.59,20.8,83.92,58.39,62.21,222.51,89.26,117,28.36l37.59-21.7,169.17,97.67Z"/><path class="cls-289" d="M286.2,126,122.08,99l105.48,60.9L190,181.59,20.8,83.92,58.39,62.21,222.51,89.26,117,28.36l37.59-21.7,169.17,97.67Z"/><path class="cls-289" d="M286.2,126,122.08,99l105.48,60.9L190,181.59,20.8,83.92,58.39,62.21,222.51,89.26,117,28.36l37.59-21.7,169.17,97.67Z"/><path class="cls-289" d="M286.2,126,122.08,99l105.48,60.9L190,181.59,20.8,83.92,58.39,62.21,222.51,89.26,117,28.36l37.59-21.7,169.17,97.67Z"/><path class="cls-289" d="M286.2,126,122.08,99l105.48,60.9L190,181.59,20.8,83.92,58.39,62.21,222.51,89.26,117,28.36l37.59-21.7,169.17,97.67Z"/><path class="cls-289" d="M286.2,126,122.08,99l105.48,60.9L190,181.59,20.8,83.92,58.39,62.21,222.51,89.26,117,28.36l37.59-21.7,169.17,97.67Z"/><path class="cls-289" d="M286.2,126,122.08,99l105.48,60.9L190,181.59,20.8,83.92,58.39,62.21,222.51,89.26,117,28.36l37.59-21.7,169.17,97.67Z"/><path class="cls-289" d="M286.2,126,122.08,99l105.48,60.9L190,181.59,20.8,83.92,58.39,62.21,222.51,89.26,117,28.36l37.59-21.7,169.17,97.67Z"/><path class="cls-289" d="M286.2,126,122.08,99l105.48,60.9L190,181.59,20.8,83.92,58.39,62.21,222.51,89.26,117,28.36l37.59-21.7,169.17,97.67Z"/><path class="cls-290" d="M286.2,126,122.08,99l105.48,60.9L190,181.59,20.8,83.92,58.39,62.21,222.51,89.26,117,28.36l37.59-21.7,169.17,97.67Z"/><path class="cls-290" d="M286.2,126,122.08,99l105.48,60.9L190,181.59,20.8,83.92,58.39,62.21,222.51,89.26,117,28.36l37.59-21.7,169.17,97.67Z"/><path class="cls-290" d="M286.2,126,122.08,99l105.48,60.9L190,181.59,20.8,83.92,58.39,62.21,222.51,89.26,117,28.36l37.59-21.7,169.17,97.67Z"/><path class="cls-291" d="M286.2,126,122.08,99l105.48,60.9L190,181.59,20.8,83.92,58.39,62.21,222.51,89.26,117,28.36l37.59-21.7,169.17,97.67Z"/><path class="cls-291" d="M286.2,126,122.08,99l105.48,60.9L190,181.59,20.8,83.92,58.39,62.21,222.51,89.26,117,28.36l37.59-21.7,169.17,97.67Z"/><path class="cls-291" d="M286.2,126,122.08,99l105.48,60.9L190,181.59,20.8,83.92,58.39,62.21,222.51,89.26,117,28.36l37.59-21.7,169.17,97.67Z"/><path class="cls-291" d="M286.2,126,122.08,99l105.48,60.9L190,181.59,20.8,83.92,58.39,62.21,222.51,89.26,117,28.36l37.59-21.7,169.17,97.67Z"/><path class="cls-292" d="M286.2,126,122.08,99l105.48,60.9L190,181.59,20.8,83.92,58.39,62.21,222.51,89.26,117,28.36l37.59-21.7,169.17,97.67Z"/><path class="cls-292" d="M286.2,126,122.08,99l105.48,60.9L190,181.59,20.8,83.92,58.39,62.21,222.51,89.26,117,28.36l37.59-21.7,169.17,97.67Z"/><path class="cls-292" d="M286.2,126,122.08,99l105.48,60.9L190,181.59,20.8,83.92,58.39,62.21,222.51,89.26,117,28.36l37.59-21.7,169.17,97.67Z"/><path class="cls-292" d="M286.2,126,122.08,99l105.48,60.9L190,181.59,20.8,83.92,58.39,62.21,222.51,89.26,117,28.36l37.59-21.7,169.17,97.67Z"/><path class="cls-292" d="M286.2,126,122.08,99l105.48,60.9L190,181.59,20.8,83.92,58.39,62.21,222.51,89.26,117,28.36l37.59-21.7,169.17,97.67Z"/><path class="cls-292" d="M286.2,126,122.08,99l105.48,60.9L190,181.59,20.8,83.92,58.39,62.21,222.51,89.26,117,28.36l37.59-21.7,169.17,97.67Z"/><path class="cls-292" d="M286.2,126,122.08,99l105.48,60.9L190,181.59,20.8,83.92,58.39,62.21,222.51,89.26,117,28.36l37.59-21.7,169.17,97.67Z"/><path class="cls-293" d="M286.2,126,122.08,99l105.48,60.9L190,181.59,20.8,83.92,58.39,62.21,222.51,89.26,117,28.36l37.59-21.7,169.17,97.67Z"/><path class="cls-293" d="M286.2,126,122.08,99l105.48,60.9L190,181.59,20.8,83.92,58.39,62.21,222.51,89.26,117,28.36l37.59-21.7,169.17,97.67Z"/><path class="cls-293" d="M286.2,126,122.08,99l105.48,60.9L190,181.59,20.8,83.92,58.39,62.21,222.51,89.26,117,28.36l37.59-21.7,169.17,97.67Z"/><path class="cls-293" d="M286.2,126,122.08,99l105.48,60.9L190,181.59,20.8,83.92,58.39,62.21,222.51,89.26,117,28.36l37.59-21.7,169.17,97.67Z"/><path class="cls-293" d="M286.2,126,122.08,99l105.48,60.9L190,181.59,20.8,83.92,58.39,62.21,222.51,89.26,117,28.36l37.59-21.7,169.17,97.67Z"/><path class="cls-293" d="M286.2,126,122.08,99l105.48,60.9L190,181.59,20.8,83.92,58.39,62.21,222.51,89.26,117,28.36l37.59-21.7,169.17,97.67Z"/><path class="cls-294" d="M286.2,126,122.08,99l105.48,60.9L190,181.59,20.8,83.92,58.39,62.21,222.51,89.26,117,28.36l37.59-21.7,169.17,97.67Z"/><path class="cls-294" d="M286.2,126,122.08,99l105.48,60.9L190,181.59,20.8,83.92,58.39,62.21,222.51,89.26,117,28.36l37.59-21.7,169.17,97.67Z"/><path class="cls-294" d="M286.2,126,122.08,99l105.48,60.9L190,181.59,20.8,83.92,58.39,62.21,222.51,89.26,117,28.36l37.59-21.7,169.17,97.67Z"/><path class="cls-294" d="M286.2,126,122.08,99l105.48,60.9L190,181.59,20.8,83.92,58.39,62.21,222.51,89.26,117,28.36l37.59-21.7,169.17,97.67Z"/><path class="cls-294" d="M286.2,126,122.08,99l105.48,60.9L190,181.59,20.8,83.92,58.39,62.21,222.51,89.26,117,28.36l37.59-21.7,169.17,97.67Z"/><path class="cls-294" d="M286.2,126,122.08,99l105.48,60.9L190,181.59,20.8,83.92,58.39,62.21,222.51,89.26,117,28.36l37.59-21.7,169.17,97.67Z"/><path class="cls-294" d="M286.2,126,122.08,99l105.48,60.9L190,181.59,20.8,83.92,58.39,62.21,222.51,89.26,117,28.36l37.59-21.7,169.17,97.67Z"/><path class="cls-294" d="M286.2,126,122.08,99l105.48,60.9L190,181.59,20.8,83.92,58.39,62.21,222.51,89.26,117,28.36l37.59-21.7,169.17,97.67Z"/><path class="cls-295" d="M286.2,126,122.08,99l105.48,60.9L190,181.59,20.8,83.92,58.39,62.21,222.51,89.26,117,28.36l37.59-21.7,169.17,97.67Z"/><path class="cls-295" d="M286.2,126,122.08,99l105.48,60.9L190,181.59,20.8,83.92,58.39,62.21,222.51,89.26,117,28.36l37.59-21.7,169.17,97.67Z"/><path class="cls-295" d="M286.2,126,122.08,99l105.48,60.9L190,181.59,20.8,83.92,58.39,62.21,222.51,89.26,117,28.36l37.59-21.7,169.17,97.67Z"/><path class="cls-295" d="M286.2,126,122.08,99l105.48,60.9L190,181.59,20.8,83.92,58.39,62.21,222.51,89.26,117,28.36l37.59-21.7,169.17,97.67Z"/><path class="cls-295" d="M286.2,126,122.08,99l105.48,60.9L190,181.59,20.8,83.92,58.39,62.21,222.51,89.26,117,28.36l37.59-21.7,169.17,97.67Z"/><path class="cls-295" d="M286.2,126,122.08,99l105.48,60.9L190,181.59,20.8,83.92,58.39,62.21,222.51,89.26,117,28.36l37.59-21.7,169.17,97.67Z"/><path class="cls-295" d="M286.2,126,122.08,99l105.48,60.9L190,181.59,20.8,83.92,58.39,62.21,222.51,89.26,117,28.36l37.59-21.7,169.17,97.67Z"/><path class="cls-296" d="M286.2,126,122.08,99l105.48,60.9L190,181.59,20.8,83.92,58.39,62.21,222.51,89.26,117,28.36l37.59-21.7,169.17,97.67Z"/><path class="cls-296" d="M286.2,126,122.08,99l105.48,60.9L190,181.59,20.8,83.92,58.39,62.21,222.51,89.26,117,28.36l37.59-21.7,169.17,97.67Z"/><path class="cls-297" d="M286.2,126,122.08,99l105.48,60.9L190,181.59,20.8,83.92,58.39,62.21,222.51,89.26,117,28.36l37.59-21.7,169.17,97.67Z"/><path class="cls-297" d="M286.2,126,122.08,99l105.48,60.9L190,181.59,20.8,83.92,58.39,62.21,222.51,89.26,117,28.36l37.59-21.7,169.17,97.67Z"/><path class="cls-297" d="M286.2,126,122.08,99l105.48,60.9L190,181.59,20.8,83.92,58.39,62.21,222.51,89.26,117,28.36l37.59-21.7,169.17,97.67Z"/><path class="cls-297" d="M286.2,126,122.08,99l105.48,60.9L190,181.59,20.8,83.92,58.39,62.21,222.51,89.26,117,28.36l37.59-21.7,169.17,97.67Z"/><path class="cls-298" d="M286.2,126,122.08,99l105.48,60.9L190,181.59,20.8,83.92,58.39,62.21,222.51,89.26,117,28.36l37.59-21.7,169.17,97.67Z"/><path class="cls-298" d="M286.2,126,122.08,99l105.48,60.9L190,181.59,20.8,83.92,58.39,62.21,222.51,89.26,117,28.36l37.59-21.7,169.17,97.67Z"/><path class="cls-298" d="M286.2,126,122.08,99l105.48,60.9L190,181.59,20.8,83.92,58.39,62.21,222.51,89.26,117,28.36l37.59-21.7,169.17,97.67Z"/><path class="cls-298" d="M286.2,126,122.08,99l105.48,60.9L190,181.59,20.8,83.92,58.39,62.21,222.51,89.26,117,28.36l37.59-21.7,169.17,97.67Z"/><path class="cls-298" d="M286.2,126,122.08,99l105.48,60.9L190,181.59,20.8,83.92,58.39,62.21,222.51,89.26,117,28.36l37.59-21.7,169.17,97.67Z"/><path class="cls-298" d="M286.2,126,122.08,99l105.48,60.9L190,181.59,20.8,83.92,58.39,62.21,222.51,89.26,117,28.36l37.59-21.7,169.17,97.67Z"/><path class="cls-298" d="M286.2,126,122.08,99l105.48,60.9L190,181.59,20.8,83.92,58.39,62.21,222.51,89.26,117,28.36l37.59-21.7,169.17,97.67Z"/><path class="cls-298" d="M286.2,126,122.08,99l105.48,60.9L190,181.59,20.8,83.92,58.39,62.21,222.51,89.26,117,28.36l37.59-21.7,169.17,97.67Z"/><path class="cls-298" d="M286.2,126,122.08,99l105.48,60.9L190,181.59,20.8,83.92,58.39,62.21,222.51,89.26,117,28.36l37.59-21.7,169.17,97.67Z"/><path class="cls-298" d="M286.2,126,122.08,99l105.48,60.9L190,181.59,20.8,83.92,58.39,62.21,222.51,89.26,117,28.36l37.59-21.7,169.17,97.67Z"/><path class="cls-298" d="M286.2,126,122.08,99l105.48,60.9L190,181.59,20.8,83.92,58.39,62.21,222.51,89.26,117,28.36l37.59-21.7,169.17,97.67Z"/><path class="cls-298" d="M286.2,126,122.08,99l105.48,60.9L190,181.59,20.8,83.92,58.39,62.21,222.51,89.26,117,28.36l37.59-21.7,169.17,97.67Z"/><path class="cls-298" d="M286.2,126,122.08,99l105.48,60.9L190,181.59,20.8,83.92,58.39,62.21,222.51,89.26,117,28.36l37.59-21.7,169.17,97.67Z"/><path class="cls-299" d="M286.2,126,122.08,99l105.48,60.9L190,181.59,20.8,83.92,58.39,62.21,222.51,89.26,117,28.36l37.59-21.7,169.17,97.67Z"/><path class="cls-300" d="M286.2,126,122.08,99l105.48,60.9L190,181.59,20.8,83.92,58.39,62.21,222.51,89.26,117,28.36l37.59-21.7,169.17,97.67Z"/><path class="cls-300" d="M286.2,126,122.08,99l105.48,60.9L190,181.59,20.8,83.92,58.39,62.21,222.51,89.26,117,28.36l37.59-21.7,169.17,97.67Z"/><path class="cls-300" d="M286.2,126,122.08,99l105.48,60.9L190,181.59,20.8,83.92,58.39,62.21,222.51,89.26,117,28.36l37.59-21.7,169.17,97.67Z"/><path class="cls-300" d="M286.2,126,122.08,99l105.48,60.9L190,181.59,20.8,83.92,58.39,62.21,222.51,89.26,117,28.36l37.59-21.7,169.17,97.67Z"/><path class="cls-300" d="M286.2,126,122.08,99l105.48,60.9L190,181.59,20.8,83.92,58.39,62.21,222.51,89.26,117,28.36l37.59-21.7,169.17,97.67Z"/><path class="cls-300" d="M286.2,126,122.08,99l105.48,60.9L190,181.59,20.8,83.92,58.39,62.21,222.51,89.26,117,28.36l37.59-21.7,169.17,97.67Z"/><path class="cls-300" d="M286.2,126,122.08,99l105.48,60.9L190,181.59,20.8,83.92,58.39,62.21,222.51,89.26,117,28.36l37.59-21.7,169.17,97.67Z"/><path class="cls-301" d="M286.2,126,122.08,99l105.48,60.9L190,181.59,20.8,83.92,58.39,62.21,222.51,89.26,117,28.36l37.59-21.7,169.17,97.67Z"/><path class="cls-301" d="M286.2,126,122.08,99l105.48,60.9L190,181.59,20.8,83.92,58.39,62.21,222.51,89.26,117,28.36l37.59-21.7,169.17,97.67Z"/><path class="cls-301" d="M286.2,126,122.08,99l105.48,60.9L190,181.59,20.8,83.92,58.39,62.21,222.51,89.26,117,28.36l37.59-21.7,169.17,97.67Z"/><path class="cls-301" d="M286.2,126,122.08,99l105.48,60.9L190,181.59,20.8,83.92,58.39,62.21,222.51,89.26,117,28.36l37.59-21.7,169.17,97.67Z"/><path class="cls-301" d="M286.2,126,122.08,99l105.48,60.9L190,181.59,20.8,83.92,58.39,62.21,222.51,89.26,117,28.36l37.59-21.7,169.17,97.67Z"/><path class="cls-301" d="M286.2,126,122.08,99l105.48,60.9L190,181.59,20.8,83.92,58.39,62.21,222.51,89.26,117,28.36l37.59-21.7,169.17,97.67Z"/><path class="cls-301" d="M286.2,126,122.08,99l105.48,60.9L190,181.59,20.8,83.92,58.39,62.21,222.51,89.26,117,28.36l37.59-21.7,169.17,97.67Z"/><path class="cls-302" d="M286.2,126,122.08,99l105.48,60.9L190,181.59,20.8,83.92,58.39,62.21,222.51,89.26,117,28.36l37.59-21.7,169.17,97.67Z"/><path class="cls-303" d="M286.2,126,122.08,99l105.48,60.9L190,181.59,20.8,83.92,58.39,62.21,222.51,89.26,117,28.36l37.59-21.7,169.17,97.67Z"/><path class="cls-303" d="M286.2,126,122.08,99l105.48,60.9L190,181.59,20.8,83.92,58.39,62.21,222.51,89.26,117,28.36l37.59-21.7,169.17,97.67Z"/><path class="cls-303" d="M286.2,126,122.08,99l105.48,60.9L190,181.59,20.8,83.92,58.39,62.21,222.51,89.26,117,28.36l37.59-21.7,169.17,97.67Z"/><path class="cls-303" d="M286.2,126,122.08,99l105.48,60.9L190,181.59,20.8,83.92,58.39,62.21,222.51,89.26,117,28.36l37.59-21.7,169.17,97.67Z"/><path class="cls-303" d="M286.2,126,122.08,99l105.48,60.9L190,181.59,20.8,83.92,58.39,62.21,222.51,89.26,117,28.36l37.59-21.7,169.17,97.67Z"/><path class="cls-303" d="M286.2,126,122.08,99l105.48,60.9L190,181.59,20.8,83.92,58.39,62.21,222.51,89.26,117,28.36l37.59-21.7,169.17,97.67Z"/><path class="cls-303" d="M286.2,126,122.08,99l105.48,60.9L190,181.59,20.8,83.92,58.39,62.21,222.51,89.26,117,28.36l37.59-21.7,169.17,97.67Z"/><path class="cls-303" d="M286.2,126,122.08,99l105.48,60.9L190,181.59,20.8,83.92,58.39,62.21,222.51,89.26,117,28.36l37.59-21.7,169.17,97.67Z"/><path class="cls-303" d="M286.2,126,122.08,99l105.48,60.9L190,181.59,20.8,83.92,58.39,62.21,222.51,89.26,117,28.36l37.59-21.7,169.17,97.67Z"/><path class="cls-303" d="M286.2,126,122.08,99l105.48,60.9L190,181.59,20.8,83.92,58.39,62.21,222.51,89.26,117,28.36l37.59-21.7,169.17,97.67Z"/><path class="cls-303" d="M286.2,126,122.08,99l105.48,60.9L190,181.59,20.8,83.92,58.39,62.21,222.51,89.26,117,28.36l37.59-21.7,169.17,97.67Z"/><path class="cls-303" d="M286.2,126,122.08,99l105.48,60.9L190,181.59,20.8,83.92,58.39,62.21,222.51,89.26,117,28.36l37.59-21.7,169.17,97.67Z"/><path class="cls-303" d="M286.2,126,122.08,99l105.48,60.9L190,181.59,20.8,83.92,58.39,62.21,222.51,89.26,117,28.36l37.59-21.7,169.17,97.67Z"/><path class="cls-304" d="M286.2,126,122.08,99l105.48,60.9L190,181.59,20.8,83.92,58.39,62.21,222.51,89.26,117,28.36l37.59-21.7,169.17,97.67Z"/><path class="cls-304" d="M286.2,126,122.08,99l105.48,60.9L190,181.59,20.8,83.92,58.39,62.21,222.51,89.26,117,28.36l37.59-21.7,169.17,97.67Z"/><path class="cls-304" d="M286.2,126,122.08,99l105.48,60.9L190,181.59,20.8,83.92,58.39,62.21,222.51,89.26,117,28.36l37.59-21.7,169.17,97.67Z"/><path class="cls-304" d="M286.2,126,122.08,99l105.48,60.9L190,181.59,20.8,83.92,58.39,62.21,222.51,89.26,117,28.36l37.59-21.7,169.17,97.67Z"/><path class="cls-305" d="M286.2,126,122.08,99l105.48,60.9L190,181.59,20.8,83.92,58.39,62.21,222.51,89.26,117,28.36l37.59-21.7,169.17,97.67Z"/><path class="cls-305" d="M286.2,126,122.08,99l105.48,60.9L190,181.59,20.8,83.92,58.39,62.21,222.51,89.26,117,28.36l37.59-21.7,169.17,97.67Z"/><path class="cls-306" d="M286.2,126,122.08,99l105.48,60.9L190,181.59,20.8,83.92,58.39,62.21,222.51,89.26,117,28.36l37.59-21.7,169.17,97.67Z"/><path class="cls-306" d="M286.2,126,122.08,99l105.48,60.9L190,181.59,20.8,83.92,58.39,62.21,222.51,89.26,117,28.36l37.59-21.7,169.17,97.67Z"/><path class="cls-306" d="M286.2,126,122.08,99l105.48,60.9L190,181.59,20.8,83.92,58.39,62.21,222.51,89.26,117,28.36l37.59-21.7,169.17,97.67Z"/><path class="cls-306" d="M286.2,126,122.08,99l105.48,60.9L190,181.59,20.8,83.92,58.39,62.21,222.51,89.26,117,28.36l37.59-21.7,169.17,97.67Z"/><path class="cls-306" d="M286.2,126,122.08,99l105.48,60.9L190,181.59,20.8,83.92,58.39,62.21,222.51,89.26,117,28.36l37.59-21.7,169.17,97.67Z"/><path class="cls-306" d="M286.2,126,122.08,99l105.48,60.9L190,181.59,20.8,83.92,58.39,62.21,222.51,89.26,117,28.36l37.59-21.7,169.17,97.67Z"/><path class="cls-306" d="M286.2,126,122.08,99l105.48,60.9L190,181.59,20.8,83.92,58.39,62.21,222.51,89.26,117,28.36l37.59-21.7,169.17,97.67Z"/><path class="cls-307" d="M286.2,126,122.08,99l105.48,60.9L190,181.59,20.8,83.92,58.39,62.21,222.51,89.26,117,28.36l37.59-21.7,169.17,97.67Z"/><path class="cls-307" d="M286.2,126,122.08,99l105.48,60.9L190,181.59,20.8,83.92,58.39,62.21,222.51,89.26,117,28.36l37.59-21.7,169.17,97.67Z"/><path class="cls-307" d="M286.2,126,122.08,99l105.48,60.9L190,181.59,20.8,83.92,58.39,62.21,222.51,89.26,117,28.36l37.59-21.7,169.17,97.67Z"/><path class="cls-307" d="M286.2,126,122.08,99l105.48,60.9L190,181.59,20.8,83.92,58.39,62.21,222.51,89.26,117,28.36l37.59-21.7,169.17,97.67Z"/><path class="cls-307" d="M286.2,126,122.08,99l105.48,60.9L190,181.59,20.8,83.92,58.39,62.21,222.51,89.26,117,28.36l37.59-21.7,169.17,97.67Z"/><path class="cls-307" d="M286.2,126,122.08,99l105.48,60.9L190,181.59,20.8,83.92,58.39,62.21,222.51,89.26,117,28.36l37.59-21.7,169.17,97.67Z"/><path class="cls-307" d="M286.2,126,122.08,99l105.48,60.9L190,181.59,20.8,83.92,58.39,62.21,222.51,89.26,117,28.36l37.59-21.7,169.17,97.67Z"/><path class="cls-307" d="M286.2,126,122.08,99l105.48,60.9L190,181.59,20.8,83.92,58.39,62.21,222.51,89.26,117,28.36l37.59-21.7,169.17,97.67Z"/><path class="cls-308" d="M286.2,126,122.08,99l105.48,60.9L190,181.59,20.8,83.92,58.39,62.21,222.51,89.26,117,28.36l37.59-21.7,169.17,97.67Z"/><path class="cls-308" d="M286.2,126,122.08,99l105.48,60.9L190,181.59,20.8,83.92,58.39,62.21,222.51,89.26,117,28.36l37.59-21.7,169.17,97.67Z"/><path class="cls-308" d="M286.2,126,122.08,99l105.48,60.9L190,181.59,20.8,83.92,58.39,62.21,222.51,89.26,117,28.36l37.59-21.7,169.17,97.67Z"/><path class="cls-308" d="M286.2,126,122.08,99l105.48,60.9L190,181.59,20.8,83.92,58.39,62.21,222.51,89.26,117,28.36l37.59-21.7,169.17,97.67Z"/><path class="cls-308" d="M286.2,126,122.08,99l105.48,60.9L190,181.59,20.8,83.92,58.39,62.21,222.51,89.26,117,28.36l37.59-21.7,169.17,97.67Z"/><path class="cls-308" d="M286.2,126,122.08,99l105.48,60.9L190,181.59,20.8,83.92,58.39,62.21,222.51,89.26,117,28.36l37.59-21.7,169.17,97.67Z"/><path class="cls-309" d="M286.2,126,122.08,99l105.48,60.9L190,181.59,20.8,83.92,58.39,62.21,222.51,89.26,117,28.36l37.59-21.7,169.17,97.67Z"/><path class="cls-309" d="M286.2,126,122.08,99l105.48,60.9L190,181.59,20.8,83.92,58.39,62.21,222.51,89.26,117,28.36l37.59-21.7,169.17,97.67Z"/><path class="cls-309" d="M286.2,126,122.08,99l105.48,60.9L190,181.59,20.8,83.92,58.39,62.21,222.51,89.26,117,28.36l37.59-21.7,169.17,97.67Z"/><path class="cls-309" d="M286.2,126,122.08,99l105.48,60.9L190,181.59,20.8,83.92,58.39,62.21,222.51,89.26,117,28.36l37.59-21.7,169.17,97.67Z"/><path class="cls-309" d="M286.2,126,122.08,99l105.48,60.9L190,181.59,20.8,83.92,58.39,62.21,222.51,89.26,117,28.36l37.59-21.7,169.17,97.67Z"/><path class="cls-309" d="M286.2,126,122.08,99l105.48,60.9L190,181.59,20.8,83.92,58.39,62.21,222.51,89.26,117,28.36l37.59-21.7,169.17,97.67Z"/><path class="cls-309" d="M286.2,126,122.08,99l105.48,60.9L190,181.59,20.8,83.92,58.39,62.21,222.51,89.26,117,28.36l37.59-21.7,169.17,97.67Z"/><path class="cls-310" d="M286.2,126,122.08,99l105.48,60.9L190,181.59,20.8,83.92,58.39,62.21,222.51,89.26,117,28.36l37.59-21.7,169.17,97.67Z"/><path class="cls-310" d="M286.2,126,122.08,99l105.48,60.9L190,181.59,20.8,83.92,58.39,62.21,222.51,89.26,117,28.36l37.59-21.7,169.17,97.67Z"/><path class="cls-310" d="M286.2,126,122.08,99l105.48,60.9L190,181.59,20.8,83.92,58.39,62.21,222.51,89.26,117,28.36l37.59-21.7,169.17,97.67Z"/><path class="cls-310" d="M286.2,126,122.08,99l105.48,60.9L190,181.59,20.8,83.92,58.39,62.21,222.51,89.26,117,28.36l37.59-21.7,169.17,97.67Z"/><path class="cls-311" d="M286.2,126,122.08,99l105.48,60.9L190,181.59,20.8,83.92,58.39,62.21,222.51,89.26,117,28.36l37.59-21.7,169.17,97.67Z"/><path class="cls-311" d="M286.2,126,122.08,99l105.48,60.9L190,181.59,20.8,83.92,58.39,62.21,222.51,89.26,117,28.36l37.59-21.7,169.17,97.67Z"/><path class="cls-311" d="M286.2,126,122.08,99l105.48,60.9L190,181.59,20.8,83.92,58.39,62.21,222.51,89.26,117,28.36l37.59-21.7,169.17,97.67Z"/><path class="cls-312" d="M286.2,126,122.08,99l105.48,60.9L190,181.59,20.8,83.92,58.39,62.21,222.51,89.26,117,28.36l37.59-21.7,169.17,97.67Z"/><path class="cls-312" d="M286.2,126,122.08,99l105.48,60.9L190,181.59,20.8,83.92,58.39,62.21,222.51,89.26,117,28.36l37.59-21.7,169.17,97.67Z"/><path class="cls-312" d="M286.2,126,122.08,99l105.48,60.9L190,181.59,20.8,83.92,58.39,62.21,222.51,89.26,117,28.36l37.59-21.7,169.17,97.67Z"/><path class="cls-312" d="M286.2,126,122.08,99l105.48,60.9L190,181.59,20.8,83.92,58.39,62.21,222.51,89.26,117,28.36l37.59-21.7,169.17,97.67Z"/><path class="cls-312" d="M286.2,126,122.08,99l105.48,60.9L190,181.59,20.8,83.92,58.39,62.21,222.51,89.26,117,28.36l37.59-21.7,169.17,97.67Z"/><path class="cls-312" d="M286.2,126,122.08,99l105.48,60.9L190,181.59,20.8,83.92,58.39,62.21,222.51,89.26,117,28.36l37.59-21.7,169.17,97.67Z"/><path class="cls-312" d="M286.2,126,122.08,99l105.48,60.9L190,181.59,20.8,83.92,58.39,62.21,222.51,89.26,117,28.36l37.59-21.7,169.17,97.67Z"/><path class="cls-312" d="M286.2,126,122.08,99l105.48,60.9L190,181.59,20.8,83.92,58.39,62.21,222.51,89.26,117,28.36l37.59-21.7,169.17,97.67Z"/><path class="cls-312" d="M286.2,126,122.08,99l105.48,60.9L190,181.59,20.8,83.92,58.39,62.21,222.51,89.26,117,28.36l37.59-21.7,169.17,97.67Z"/><path class="cls-312" d="M286.2,126,122.08,99l105.48,60.9L190,181.59,20.8,83.92,58.39,62.21,222.51,89.26,117,28.36l37.59-21.7,169.17,97.67Z"/><path class="cls-312" d="M286.2,126,122.08,99l105.48,60.9L190,181.59,20.8,83.92,58.39,62.21,222.51,89.26,117,28.36l37.59-21.7,169.17,97.67Z"/><path class="cls-312" d="M286.2,126,122.08,99l105.48,60.9L190,181.59,20.8,83.92,58.39,62.21,222.51,89.26,117,28.36l37.59-21.7,169.17,97.67Z"/><path class="cls-312" d="M286.2,126,122.08,99l105.48,60.9L190,181.59,20.8,83.92,58.39,62.21,222.51,89.26,117,28.36l37.59-21.7,169.17,97.67Z"/><path class="cls-313" d="M286.2,126,122.08,99l105.48,60.9L190,181.59,20.8,83.92,58.39,62.21,222.51,89.26,117,28.36l37.59-21.7,169.17,97.67Z"/><path class="cls-313" d="M286.2,126,122.08,99l105.48,60.9L190,181.59,20.8,83.92,58.39,62.21,222.51,89.26,117,28.36l37.59-21.7,169.17,97.67Z"/><path class="cls-313" d="M286.2,126,122.08,99l105.48,60.9L190,181.59,20.8,83.92,58.39,62.21,222.51,89.26,117,28.36l37.59-21.7,169.17,97.67Z"/><path class="cls-313" d="M286.2,126,122.08,99l105.48,60.9L190,181.59,20.8,83.92,58.39,62.21,222.51,89.26,117,28.36l37.59-21.7,169.17,97.67Z"/><path class="cls-313" d="M286.2,126,122.08,99l105.48,60.9L190,181.59,20.8,83.92,58.39,62.21,222.51,89.26,117,28.36l37.59-21.7,169.17,97.67Z"/><path class="cls-313" d="M286.2,126,122.08,99l105.48,60.9L190,181.59,20.8,83.92,58.39,62.21,222.51,89.26,117,28.36l37.59-21.7,169.17,97.67Z"/><path class="cls-313" d="M286.2,126,122.08,99l105.48,60.9L190,181.59,20.8,83.92,58.39,62.21,222.51,89.26,117,28.36l37.59-21.7,169.17,97.67Z"/><path class="cls-314" d="M286.2,126,122.08,99l105.48,60.9L190,181.59,20.8,83.92,58.39,62.21,222.51,89.26,117,28.36l37.59-21.7,169.17,97.67Z"/><path class="cls-314" d="M286.2,126,122.08,99l105.48,60.9L190,181.59,20.8,83.92,58.39,62.21,222.51,89.26,117,28.36l37.59-21.7,169.17,97.67Z"/><path class="cls-314" d="M286.2,126,122.08,99l105.48,60.9L190,181.59,20.8,83.92,58.39,62.21,222.51,89.26,117,28.36l37.59-21.7,169.17,97.67Z"/><path class="cls-314" d="M286.2,126,122.08,99l105.48,60.9L190,181.59,20.8,83.92,58.39,62.21,222.51,89.26,117,28.36l37.59-21.7,169.17,97.67Z"/><path class="cls-314" d="M286.2,126,122.08,99l105.48,60.9L190,181.59,20.8,83.92,58.39,62.21,222.51,89.26,117,28.36l37.59-21.7,169.17,97.67Z"/><path class="cls-314" d="M286.2,126,122.08,99l105.48,60.9L190,181.59,20.8,83.92,58.39,62.21,222.51,89.26,117,28.36l37.59-21.7,169.17,97.67Z"/><path class="cls-314" d="M286.2,126,122.08,99l105.48,60.9L190,181.59,20.8,83.92,58.39,62.21,222.51,89.26,117,28.36l37.59-21.7,169.17,97.67Z"/><path class="cls-315" d="M286.2,126,122.08,99l105.48,60.9L190,181.59,20.8,83.92,58.39,62.21,222.51,89.26,117,28.36l37.59-21.7,169.17,97.67Z"/><path class="cls-315" d="M286.2,126,122.08,99l105.48,60.9L190,181.59,20.8,83.92,58.39,62.21,222.51,89.26,117,28.36l37.59-21.7,169.17,97.67Z"/><path class="cls-315" d="M286.2,126,122.08,99l105.48,60.9L190,181.59,20.8,83.92,58.39,62.21,222.51,89.26,117,28.36l37.59-21.7,169.17,97.67Z"/><path class="cls-316" d="M286.2,126,122.08,99l105.48,60.9L190,181.59,20.8,83.92,58.39,62.21,222.51,89.26,117,28.36l37.59-21.7,169.17,97.67Z"/><path class="cls-316" d="M286.2,126,122.08,99l105.48,60.9L190,181.59,20.8,83.92,58.39,62.21,222.51,89.26,117,28.36l37.59-21.7,169.17,97.67Z"/><path class="cls-316" d="M286.2,126,122.08,99l105.48,60.9L190,181.59,20.8,83.92,58.39,62.21,222.51,89.26,117,28.36l37.59-21.7,169.17,97.67Z"/><path class="cls-316" d="M286.2,126,122.08,99l105.48,60.9L190,181.59,20.8,83.92,58.39,62.21,222.51,89.26,117,28.36l37.59-21.7,169.17,97.67Z"/><path class="cls-316" d="M286.2,126,122.08,99l105.48,60.9L190,181.59,20.8,83.92,58.39,62.21,222.51,89.26,117,28.36l37.59-21.7,169.17,97.67Z"/><path class="cls-316" d="M286.2,126,122.08,99l105.48,60.9L190,181.59,20.8,83.92,58.39,62.21,222.51,89.26,117,28.36l37.59-21.7,169.17,97.67Z"/><path class="cls-316" d="M286.2,126,122.08,99l105.48,60.9L190,181.59,20.8,83.92,58.39,62.21,222.51,89.26,117,28.36l37.59-21.7,169.17,97.67Z"/><path class="cls-316" d="M286.2,126,122.08,99l105.48,60.9L190,181.59,20.8,83.92,58.39,62.21,222.51,89.26,117,28.36l37.59-21.7,169.17,97.67Z"/><path class="cls-316" d="M286.2,126,122.08,99l105.48,60.9L190,181.59,20.8,83.92,58.39,62.21,222.51,89.26,117,28.36l37.59-21.7,169.17,97.67Z"/><path class="cls-316" d="M286.2,126,122.08,99l105.48,60.9L190,181.59,20.8,83.92,58.39,62.21,222.51,89.26,117,28.36l37.59-21.7,169.17,97.67Z"/><path class="cls-316" d="M286.2,126,122.08,99l105.48,60.9L190,181.59,20.8,83.92,58.39,62.21,222.51,89.26,117,28.36l37.59-21.7,169.17,97.67Z"/><path class="cls-317" d="M286.2,126,122.08,99l105.48,60.9L190,181.59,20.8,83.92,58.39,62.21,222.51,89.26,117,28.36l37.59-21.7,169.17,97.67Z"/><path class="cls-317" d="M286.2,126,122.08,99l105.48,60.9L190,181.59,20.8,83.92,58.39,62.21,222.51,89.26,117,28.36l37.59-21.7,169.17,97.67Z"/><path class="cls-317" d="M286.2,126,122.08,99l105.48,60.9L190,181.59,20.8,83.92,58.39,62.21,222.51,89.26,117,28.36l37.59-21.7,169.17,97.67Z"/><path class="cls-317" d="M286.2,126,122.08,99l105.48,60.9L190,181.59,20.8,83.92,58.39,62.21,222.51,89.26,117,28.36l37.59-21.7,169.17,97.67Z"/><path class="cls-317" d="M286.2,126,122.08,99l105.48,60.9L190,181.59,20.8,83.92,58.39,62.21,222.51,89.26,117,28.36l37.59-21.7,169.17,97.67Z"/><path class="cls-317" d="M286.2,126,122.08,99l105.48,60.9L190,181.59,20.8,83.92,58.39,62.21,222.51,89.26,117,28.36l37.59-21.7,169.17,97.67Z"/><path class="cls-318" d="M286.2,126,122.08,99l105.48,60.9L190,181.59,20.8,83.92,58.39,62.21,222.51,89.26,117,28.36l37.59-21.7,169.17,97.67Z"/><path class="cls-318" d="M286.2,126,122.08,99l105.48,60.9L190,181.59,20.8,83.92,58.39,62.21,222.51,89.26,117,28.36l37.59-21.7,169.17,97.67Z"/><path class="cls-318" d="M286.2,126,122.08,99l105.48,60.9L190,181.59,20.8,83.92,58.39,62.21,222.51,89.26,117,28.36l37.59-21.7,169.17,97.67Z"/><path class="cls-318" d="M286.2,126,122.08,99l105.48,60.9L190,181.59,20.8,83.92,58.39,62.21,222.51,89.26,117,28.36l37.59-21.7,169.17,97.67Z"/><path class="cls-318" d="M286.2,126,122.08,99l105.48,60.9L190,181.59,20.8,83.92,58.39,62.21,222.51,89.26,117,28.36l37.59-21.7,169.17,97.67Z"/><path class="cls-318" d="M286.2,126,122.08,99l105.48,60.9L190,181.59,20.8,83.92,58.39,62.21,222.51,89.26,117,28.36l37.59-21.7,169.17,97.67Z"/><path class="cls-318" d="M286.2,126,122.08,99l105.48,60.9L190,181.59,20.8,83.92,58.39,62.21,222.51,89.26,117,28.36l37.59-21.7,169.17,97.67Z"/><path class="cls-319" d="M286.2,126,122.08,99l105.48,60.9L190,181.59,20.8,83.92,58.39,62.21,222.51,89.26,117,28.36l37.59-21.7,169.17,97.67Z"/><path class="cls-319" d="M286.2,126,122.08,99l105.48,60.9L190,181.59,20.8,83.92,58.39,62.21,222.51,89.26,117,28.36l37.59-21.7,169.17,97.67Z"/><path class="cls-319" d="M286.2,126,122.08,99l105.48,60.9L190,181.59,20.8,83.92,58.39,62.21,222.51,89.26,117,28.36l37.59-21.7,169.17,97.67Z"/><path class="cls-319" d="M286.2,126,122.08,99l105.48,60.9L190,181.59,20.8,83.92,58.39,62.21,222.51,89.26,117,28.36l37.59-21.7,169.17,97.67Z"/><path class="cls-319" d="M286.2,126,122.08,99l105.48,60.9L190,181.59,20.8,83.92,58.39,62.21,222.51,89.26,117,28.36l37.59-21.7,169.17,97.67Z"/><path class="cls-319" d="M286.2,126,122.08,99l105.48,60.9L190,181.59,20.8,83.92,58.39,62.21,222.51,89.26,117,28.36l37.59-21.7,169.17,97.67Z"/><path class="cls-319" d="M286.2,126,122.08,99l105.48,60.9L190,181.59,20.8,83.92,58.39,62.21,222.51,89.26,117,28.36l37.59-21.7,169.17,97.67Z"/><path class="cls-319" d="M286.2,126,122.08,99l105.48,60.9L190,181.59,20.8,83.92,58.39,62.21,222.51,89.26,117,28.36l37.59-21.7,169.17,97.67Z"/><path class="cls-319" d="M286.2,126,122.08,99l105.48,60.9L190,181.59,20.8,83.92,58.39,62.21,222.51,89.26,117,28.36l37.59-21.7,169.17,97.67Z"/><path class="cls-320" d="M286.2,126,122.08,99l105.48,60.9L190,181.59,20.8,83.92,58.39,62.21,222.51,89.26,117,28.36l37.59-21.7,169.17,97.67Z"/><path class="cls-320" d="M286.2,126,122.08,99l105.48,60.9L190,181.59,20.8,83.92,58.39,62.21,222.51,89.26,117,28.36l37.59-21.7,169.17,97.67Z"/><path class="cls-320" d="M286.2,126,122.08,99l105.48,60.9L190,181.59,20.8,83.92,58.39,62.21,222.51,89.26,117,28.36l37.59-21.7,169.17,97.67Z"/><path class="cls-320" d="M286.2,126,122.08,99l105.48,60.9L190,181.59,20.8,83.92,58.39,62.21,222.51,89.26,117,28.36l37.59-21.7,169.17,97.67Z"/><path class="cls-320" d="M286.2,126,122.08,99l105.48,60.9L190,181.59,20.8,83.92,58.39,62.21,222.51,89.26,117,28.36l37.59-21.7,169.17,97.67Z"/><path class="cls-321" d="M286.2,126,122.08,99l105.48,60.9L190,181.59,20.8,83.92,58.39,62.21,222.51,89.26,117,28.36l37.59-21.7,169.17,97.67Z"/><path class="cls-321" d="M286.2,126,122.08,99l105.48,60.9L190,181.59,20.8,83.92,58.39,62.21,222.51,89.26,117,28.36l37.59-21.7,169.17,97.67Z"/><path class="cls-321" d="M286.2,126,122.08,99l105.48,60.9L190,181.59,20.8,83.92,58.39,62.21,222.51,89.26,117,28.36l37.59-21.7,169.17,97.67Z"/><path class="cls-321" d="M286.2,126,122.08,99l105.48,60.9L190,181.59,20.8,83.92,58.39,62.21,222.51,89.26,117,28.36l37.59-21.7,169.17,97.67Z"/><path class="cls-321" d="M286.2,126,122.08,99l105.48,60.9L190,181.59,20.8,83.92,58.39,62.21,222.51,89.26,117,28.36l37.59-21.7,169.17,97.67Z"/><path class="cls-321" d="M286.2,126,122.08,99l105.48,60.9L190,181.59,20.8,83.92,58.39,62.21,222.51,89.26,117,28.36l37.59-21.7,169.17,97.67Z"/><path class="cls-321" d="M286.2,126,122.08,99l105.48,60.9L190,181.59,20.8,83.92,58.39,62.21,222.51,89.26,117,28.36l37.59-21.7,169.17,97.67Z"/><path class="cls-322" d="M286.2,126,122.08,99l105.48,60.9L190,181.59,20.8,83.92,58.39,62.21,222.51,89.26,117,28.36l37.59-21.7,169.17,97.67Z"/><path class="cls-322" d="M286.2,126,122.08,99l105.48,60.9L190,181.59,20.8,83.92,58.39,62.21,222.51,89.26,117,28.36l37.59-21.7,169.17,97.67Z"/><path class="cls-322" d="M286.2,126,122.08,99l105.48,60.9L190,181.59,20.8,83.92,58.39,62.21,222.51,89.26,117,28.36l37.59-21.7,169.17,97.67Z"/><path class="cls-322" d="M286.2,126,122.08,99l105.48,60.9L190,181.59,20.8,83.92,58.39,62.21,222.51,89.26,117,28.36l37.59-21.7,169.17,97.67Z"/><path class="cls-322" d="M286.2,126,122.08,99l105.48,60.9L190,181.59,20.8,83.92,58.39,62.21,222.51,89.26,117,28.36l37.59-21.7,169.17,97.67Z"/><path class="cls-323" d="M286.2,126,122.08,99l105.48,60.9L190,181.59,20.8,83.92,58.39,62.21,222.51,89.26,117,28.36l37.59-21.7,169.17,97.67Z"/><path class="cls-323" d="M286.2,126,122.08,99l105.48,60.9L190,181.59,20.8,83.92,58.39,62.21,222.51,89.26,117,28.36l37.59-21.7,169.17,97.67Z"/><path class="cls-324" d="M286.2,126,122.08,99l105.48,60.9L190,181.59,20.8,83.92,58.39,62.21,222.51,89.26,117,28.36l37.59-21.7,169.17,97.67Z"/><path class="cls-324" d="M286.2,126,122.08,99l105.48,60.9L190,181.59,20.8,83.92,58.39,62.21,222.51,89.26,117,28.36l37.59-21.7,169.17,97.67Z"/><path class="cls-324" d="M286.2,126,122.08,99l105.48,60.9L190,181.59,20.8,83.92,58.39,62.21,222.51,89.26,117,28.36l37.59-21.7,169.17,97.67Z"/><path class="cls-324" d="M286.2,126,122.08,99l105.48,60.9L190,181.59,20.8,83.92,58.39,62.21,222.51,89.26,117,28.36l37.59-21.7,169.17,97.67Z"/><path class="cls-324" d="M286.2,126,122.08,99l105.48,60.9L190,181.59,20.8,83.92,58.39,62.21,222.51,89.26,117,28.36l37.59-21.7,169.17,97.67Z"/><path class="cls-324" d="M286.2,126,122.08,99l105.48,60.9L190,181.59,20.8,83.92,58.39,62.21,222.51,89.26,117,28.36l37.59-21.7,169.17,97.67Z"/><text class="cls-325" transform="matrix(0.87, -0.5, 0.87, 0.5, 174.94, 190.27)">N</text></g></svg>